<svg
  xmlns="http://www.w3.org/2000/svg"
  width="429.627"
  height="123.627"
  version="1.1"
  viewBox="0 0 429.627 123.627"
  xmlSpace="preserve"
>
  <g transform="matrix(1.33333 0 0 -1.33333 0 123.627)">
    <g
      fillOpacity="1"
      fillRule="nonzero"
      stroke="none"
      transform="scale(.1)"
    >
      <path
        fill="#3792ad"
        d="M822.406 779.391c-2.047 18.664-18.832 32.136-37.496 30.089-18.648-2.042-32.117-18.828-30.082-37.488 2.043-18.656 18.824-32.117 37.481-30.09 18.664 2.047 32.132 18.836 30.097 37.489"
      ></path>
      <path
        fill="#3792ad"
        d="M879.23 896.68c4.211 9.097.258 19.871-8.832 24.09-9.089 4.218-19.878.269-24.097-8.817-4.223-9.098-.266-19.879 8.832-24.105 9.082-4.207 19.879-.254 24.097 8.832"
      ></path>
      <path
        fill="#8aca25"
        d="M388.672 798.965c-2.219 20.293 12.449 38.555 32.734 40.777 20.293 2.215 38.555-12.441 40.774-32.738 2.222-20.293-12.434-38.551-32.727-40.777-20.293-2.223-38.555 12.445-40.781 32.738"
      ></path>
      <path
        fill="#3792ad"
        d="M396.801 854.703c-.938 8.496-8.555 14.613-17.035 13.676-8.481-.934-14.621-8.555-13.696-17.031.938-8.5 8.563-14.629 17.055-13.703 8.492.937 14.609 8.57 13.676 17.058"
      ></path>
      <path
        fill="#3792ad"
        d="M756.719 706.777c-1.746 16.02-16.16 27.594-32.188 25.844-16.015-1.754-27.59-16.168-25.84-32.199 1.758-16.02 16.164-27.586 32.2-25.824 16.011 1.75 27.586 16.156 25.828 32.179"
      ></path>
      <path
        fill="#3792ad"
        d="M678.535 668.793c5.879 12.668.371 27.711-12.297 33.59-12.683 5.879-27.715.371-33.593-12.309-5.875-12.664-.372-27.711 12.296-33.59 12.688-5.879 27.727-.371 33.594 12.309"
      ></path>
      <path
        fill="#8aca25"
        d="M828.598 732.75c-.809 7.473 4.59 14.199 12.07 15.023 7.48.821 14.199-4.585 15.012-12.07.82-7.461-4.571-14.183-12.063-15.012-7.469-.812-14.187 4.586-15.019 12.059"
      ></path>
      <path
        fill="#8aca25"
        d="M717.578 821.711c-.82 7.473 4.578 14.207 12.039 15.027 7.492.817 14.211-4.59 15.039-12.074.824-7.461-4.59-14.191-12.066-15.012-7.485-.812-14.199 4.582-15.012 12.059"
      ></path>
      <path
        fill="#8aca25"
        d="M665.313 852.781c-1.165 10.684 6.55 20.301 17.226 21.473 10.691 1.164 20.305-6.563 21.465-17.234 1.172-10.692-6.531-20.297-17.227-21.457-10.683-1.172-20.293 6.542-21.464 17.218"
      ></path>
      <path
        fill="#8aca25"
        d="M611.02 872.82c-8.485 11.121-6.356 27.004 4.746 35.461 11.105 8.496 26.972 6.371 35.449-4.726 8.476-11.114 6.359-26.992-4.746-35.469-11.082-8.477-26.973-6.348-35.449 4.734"
      ></path>
      <path
        fill="#8aca25"
        d="M533.191 898.184c-1.57 14.359 8.789 27.285 23.161 28.855 14.367 1.57 27.281-8.797 28.859-23.164 1.57-14.359-8.789-27.285-23.168-28.84-14.363-1.578-27.281 8.793-28.852 23.149"
      ></path>
      <path
        fill="#8aca25"
        d="M492.34 841.664l1.621.57c16.519 6.317 25.254 24.579 19.445 40.731-5.617 15.574-22.715 23.699-38.937 18.465l-1.555-.547c-16.523-6.305-25.273-24.574-19.445-40.727 5.59-15.636 22.668-23.734 38.871-18.492"
      ></path>
      <path
        fill="#8aca25"
        d="M330.176 734.809c-1.875 17.086 10.469 32.464 27.551 34.328 17.097 1.875 32.468-10.465 34.336-27.559 1.863-17.086-10.469-32.457-27.559-34.32-17.094-1.875-32.461 10.461-34.328 27.551"
      ></path>
      <path
        fill="#8aca25"
        d="M265.879 717.227c-1.367 12.371 7.582 23.527 19.957 24.886 12.394 1.344 23.535-7.605 24.883-19.98 1.355-12.391-7.574-23.524-19.965-24.883-12.391-1.352-23.527 7.586-24.875 19.977"
      ></path>
      <path
        fill="#3792ad"
        d="M351.836 883.227c-1.406 12.828-12.93 22.074-25.762 20.675-12.82-1.402-22.07-12.937-20.676-25.75 1.411-12.804 12.942-22.074 25.762-20.672 12.817 1.422 22.082 12.938 20.676 25.747"
      ></path>
      <path
        fill="#3792ad"
        d="M287.23 873.559c-1.57 14.418-14.55 24.828-28.964 23.254-14.422-1.583-24.832-14.551-23.262-28.965 1.578-14.422 14.547-24.856 28.976-23.27 14.418 1.59 24.825 14.563 23.25 28.981"
      ></path>
      <path
        fill="#3792ad"
        d="M856.07 851.469c-1.64 15.019-15.156 25.879-30.187 24.234-15.024-1.64-25.871-15.172-24.238-30.199 1.64-15.016 15.164-25.859 30.203-24.219 15.015 1.641 25.871 15.16 24.222 30.184"
      ></path>
      <path
        fill="#3792ad"
        d="M611.98 702.715c-1.16 10.683-10.769 18.387-21.445 17.215-10.691-1.16-18.394-10.766-17.234-21.446 1.172-10.691 10.769-18.406 21.465-17.234 10.683 1.172 18.386 10.777 17.214 21.465"
      ></path>
      <path
        fill="#3792ad"
        d="M554.844 731.785c-.938 8.559-8.621 14.703-17.156 13.778-8.547-.934-14.727-8.622-13.793-17.168.941-8.536 8.625-14.704 17.168-13.778 8.554.949 14.718 8.625 13.781 17.168"
      ></path>
      <path
        fill="#3792ad"
        d="M505.488 770.523c-.703 6.426-6.472 11.04-12.883 10.336-6.406-.699-11.042-6.457-10.332-12.871.707-6.406 6.465-11.035 12.872-10.336 6.418.696 11.039 6.481 10.343 12.871"
      ></path>
      <path
        fill="#3792ad"
        d="M173.816 754.426l26.786-21.356V120.645C199.27 55.438 126.391 0 70.906 0 54.211 0 37.488.723 24.121 10.469 2.758 26.21-.609 52.44.078 80.184c1.988 66.711 72.156 118.394 129.668 120.675 13.977.606 27.992-.328 44.313-9.453 3.183-1.777-.243 563.02-.243 563.02"
      ></path>
      <path
        fill="#3792ad"
        d="M231.016 826.469c-1.813 16.527-16.668 28.402-33.161 26.613-16.503-1.805-28.445-16.652-26.632-33.172 1.808-16.484 16.652-28.402 33.164-26.609 16.515 1.832 28.441 16.66 26.629 33.168"
      ></path>
      <path
        fill="#8aca25"
        d="M871.773 716.07c-1.164 10.684 6.551 20.297 17.227 21.469 10.691 1.168 20.301-6.562 21.465-17.23 1.172-10.696-6.535-20.301-17.227-21.461-10.683-1.172-20.293 6.543-21.465 17.222"
      ></path>
      <path
        fill="#393536"
        d="M417.418 227.363c4.941-.707 11.551-1.328 19.848-1.847 8.277-.532 17.015-.813 26.191-.813 13.754 0 27.25 1.242 40.481 3.719 13.23 2.473 24.949 6.691 35.187 12.707 10.223 5.984 18.434 13.934 24.602 23.797 6.171 9.879 9.265 22.226 9.265 37.047 0 14.808-2.644 27.25-7.941 37.3-5.289 10.067-12.528 18.254-21.696 24.61-9.171 6.351-19.933 10.93-32.281 13.754-12.347 2.828-25.578 4.226-39.683 4.226h-53.973zm50.27 188.907c28.578 0 49.48 6.347 62.703 19.046 13.23 12.7 19.843 29.278 19.843 49.743 0 19.05-6.968 35-20.898 47.879-13.941 12.878-35.898 19.328-65.879 19.328-9.176 0-17.914-.364-26.191-1.067-8.297-.707-14.907-1.41-19.848-2.121V416.27zm-86.782 161.921c3.528.344 8.551.875 15.086 1.579 6.52.707 13.488 1.418 20.899 2.125a480.781 480.781 0 0022.488 1.589c7.586.344 14.371.52 20.371.52 41.621 0 73.555-8.024 95.777-24.074 22.227-16.051 33.336-41.008 33.336-74.871 0-10.938-1.679-20.903-5.031-29.899-3.348-9-7.852-17.113-13.484-24.344-5.653-7.23-12.262-13.316-19.852-18.253-7.586-4.946-15.433-8.645-23.543-11.11 10.93-1.414 21.516-4.324 31.754-8.734 10.223-4.414 19.313-10.582 27.246-18.52 7.938-7.933 14.285-17.82 19.051-29.625 4.758-11.824 7.141-26.035 7.141-42.601 0-19.039-3.793-35.469-11.375-49.203-7.59-13.766-18.172-25.235-31.747-34.403-13.585-9.187-29.632-15.976-48.156-20.375-18.519-4.414-38.719-6.613-60.59-6.613-5.636 0-11.996.184-19.05.535-7.051.344-14.196.785-21.422 1.324a380.096 380.096 0 00-21.172 2.121c-6.875.871-12.793 1.672-17.727 2.379v380.453"
      ></path>
      <path
        fill="#393536"
        d="M660.82 533.738c-.351 3.176-.617 7.059-.793 11.645-.183 4.578-.261 8.461-.261 11.644 0 2.817.078 6.34.261 10.578.176 4.235.442 7.754.793 10.586 3.172.344 7.055.61 11.645.793 4.582.172 8.465.258 11.637.258 2.828 0 6.347-.086 10.586-.258 4.234-.183 7.753-.449 10.585-.793.348-2.832.606-6.351.797-10.586.164-4.238.258-7.761.258-10.578 0-3.183-.094-7.066-.258-11.644-.191-4.586-.449-8.469-.797-11.645-2.832-.355-6.351-.617-10.585-.8-4.239-.176-7.758-.254-10.586-.254-3.172 0-7.055.078-11.637.254-4.59.183-8.473.445-11.645.8zm17.461-95.769h-33.867c-.355 1.754-.621 3.871-.785 6.336-.184 2.472-.27 5.121-.27 7.945 0 2.816.086 5.641.27 8.469.164 2.82.43 5.109.785 6.883h68.793V197.738c-2.113-.347-5.023-.629-8.73-.8-3.711-.172-6.618-.274-8.731-.274-1.769 0-4.59.102-8.465.274-3.89.171-6.886.453-9 .8v240.231"
      ></path>
      <path
        fill="#393536"
        d="M888.883 222.078c28.222 0 49.297 9.863 63.23 29.621 13.934 19.754 20.899 46.742 20.899 80.961 0 34.215-6.965 61.195-20.899 80.965-13.933 19.75-35.008 29.629-63.23 29.629-28.223 0-49.297-9.879-63.238-29.629-13.942-19.77-20.895-46.75-20.895-80.965 0-34.219 6.953-61.207 20.895-80.961 13.941-19.758 35.015-29.621 63.238-29.621zm0-30.699c-20.11 0-37.746 3.609-52.914 10.848-15.176 7.222-27.781 17.187-37.832 29.902-10.055 12.699-17.555 27.68-22.496 44.98-4.938 17.266-7.403 35.797-7.403 55.551 0 19.75 2.465 38.278 7.403 55.567 4.941 17.281 12.441 32.273 22.496 44.976 10.051 12.703 22.656 22.66 37.832 29.891 15.168 7.226 32.804 10.851 52.914 10.851 20.109 0 37.656-3.625 52.648-10.851 14.989-7.231 27.524-17.188 37.574-29.891 10.051-12.703 17.637-27.695 22.755-44.976 5.11-17.289 7.67-35.817 7.67-55.567 0-19.754-2.56-38.285-7.67-55.551-5.118-17.3-12.704-32.281-22.755-44.98-10.05-12.715-22.585-22.68-37.574-29.902-14.992-7.239-32.539-10.848-52.648-10.848"
      ></path>
      <path
        fill="#393536"
        d="M1243.41 231.602c1.76-3.536 3.44-8.317 5.03-14.301 1.58-5.996 2.73-10.938 3.44-14.813-8.83-3.172-18.88-5.824-30.16-7.945-11.3-2.102-23.81-3.164-37.58-3.164-44.1 0-77.61 12.074-100.54 36.242-22.93 24.164-34.39 59.176-34.39 105.039 0 20.11 2.82 38.719 8.47 55.824 5.63 17.11 13.93 32.016 24.86 44.719 10.94 12.703 24.61 22.66 41.02 29.891 16.4 7.226 35.36 10.851 56.88 10.851 13.4 0 26.2-.976 38.36-2.91 12.17-1.949 21.78-4.152 28.85-6.609 0-4.59-.63-9.883-1.86-15.875-1.24-6.008-2.56-10.77-3.97-14.293-7.06 2.469-15.97 4.582-26.72 6.347-10.76 1.762-22.31 2.649-34.66 2.649-15.87 0-29.72-2.738-41.54-8.199-11.82-5.477-21.69-13.153-29.63-23.024-7.94-9.875-13.85-21.515-17.73-34.922-3.88-13.41-5.82-28.218-5.82-44.449 0-38.09 9.08-66.062 27.25-83.867 18.17-17.82 42.78-26.715 73.82-26.715 10.58 0 20.72.871 30.43 2.625 9.69 1.781 18.42 4.067 26.19 6.899"
      ></path>
      <path
        fill="#393536"
        d="M1393.17 222.078c28.21 0 49.29 9.863 63.23 29.621 13.93 19.754 20.89 46.742 20.89 80.961 0 34.215-6.96 61.195-20.89 80.965-13.94 19.75-35.02 29.629-63.23 29.629-28.24 0-49.31-9.879-63.24-29.629-13.94-19.77-20.9-46.75-20.9-80.965 0-34.219 6.96-61.207 20.9-80.961 13.93-19.758 35-29.621 63.24-29.621zm0-30.699c-20.12 0-37.76 3.609-52.92 10.848-15.18 7.222-27.78 17.187-37.84 29.902-10.05 12.699-17.55 27.68-22.49 44.98-4.94 17.266-7.41 35.797-7.41 55.551 0 19.75 2.47 38.278 7.41 55.567 4.94 17.281 12.44 32.273 22.49 44.976 10.06 12.703 22.66 22.66 37.84 29.891 15.16 7.226 32.8 10.851 52.92 10.851 20.1 0 37.64-3.625 52.64-10.851 15-7.231 27.52-17.188 37.57-29.891s17.64-27.695 22.75-44.976c5.12-17.289 7.68-35.817 7.68-55.567 0-19.754-2.56-38.285-7.68-55.551-5.11-17.3-12.7-32.281-22.75-44.98-10.05-12.715-22.57-22.68-37.57-29.902-15-7.239-32.54-10.848-52.64-10.848"
      ></path>
      <path
        fill="#393536"
        d="M1558.83 467.602c2.82.343 5.56.605 8.21.785 2.64.168 5.2.265 7.67.265 2.82 0 5.47-.097 7.94-.265 2.45-.18 5.1-.442 7.93-.785.7-6.364 1.23-14.293 1.59-23.817.35-9.527.53-17.816.53-24.875 3.52 6.348 8.11 12.785 13.76 19.32 5.64 6.528 12.26 12.438 19.84 17.723 7.58 5.285 16.31 9.61 26.2 12.965 9.86 3.352 20.62 5.027 32.27 5.027 31.05 0 53.62-9.257 67.73-27.785 14.12-18.519 21.18-44.535 21.18-78.047V197.738c-2.12-.347-5.04-.629-8.73-.8-3.71-.172-6.62-.274-8.74-.274-1.77 0-4.58.102-8.47.274-3.89.171-6.89.453-8.99.8v159.789c0 29.989-4.68 51.504-14.03 64.563-9.34 13.043-23.38 19.582-42.06 19.582-12.35 0-24-2.473-34.93-7.414-10.94-4.938-20.37-12.086-28.3-21.426-7.95-9.355-14.21-20.902-18.79-34.664-4.59-13.758-6.88-29.457-6.88-47.094V197.738c-2.11-.347-5.02-.629-8.74-.8-3.7-.172-6.61-.274-8.73-.274-1.76 0-4.58.102-8.46.274-3.88.171-6.88.453-9 .8v269.864"
      ></path>
      <path
        fill="#393536"
        d="M2020.25 431.617c-7.06 2.821-16.06 5.371-27 7.668-10.93 2.297-22.22 3.434-33.86 3.434-16.58 0-30.95-2.821-43.14-8.461-12.14-5.645-22.31-13.492-30.42-23.543-8.1-10.063-14.19-22.141-18.26-36.25-4.06-14.113-6.07-29.629-6.07-46.57 0-36.684 8.74-63.422 26.18-80.157 17.47-16.765 42.26-25.133 74.36-25.133 11.64 0 22.76.602 33.33 1.848 10.58 1.231 18.87 2.742 24.88 4.488zm0 155.043c2.12.344 5.1.606 8.97.785 3.9.172 6.72.27 8.49.27 2.11 0 5.01-.098 8.71-.27 3.71-.179 6.62-.441 8.74-.785V204.063c-10.94-3.52-24.51-6.504-40.74-8.985-16.22-2.457-33.16-3.699-50.79-3.699-19.42 0-37.57 2.301-54.5 6.875-16.94 4.582-31.6 12.172-43.93 22.746-12.35 10.602-22.15 24.535-29.37 41.801-7.23 17.304-10.84 38.633-10.84 64.039 0 23.289 3.16 44 9.52 62.172 6.35 18.172 15.35 33.511 26.99 46.043 11.65 12.519 25.66 22.129 42.07 28.84 16.4 6.699 34.47 10.05 54.23 10.05 11.65 0 23.19-.976 34.67-2.91 11.45-1.949 20.72-4.152 27.78-6.609V586.66"
      ></path>
      <path
        fill="#393536"
        d="M2114.61 467.602c2.1.343 5.12.605 8.99.785 3.89.168 6.7.265 8.47.265 2.12 0 5.03-.097 8.74-.265 3.71-.18 6.61-.442 8.74-.785V315.73c0-19.05 1.92-34.66 5.81-46.824 3.87-12.183 9.6-21.703 17.19-28.578 7.58-6.887 16.84-11.64 27.78-14.293 10.92-2.637 23.3-3.957 37.04-3.957 11.64 0 22.05.594 31.23 1.84 9.16 1.238 17.27 2.906 24.33 5.023v238.661c2.12.343 5.12.605 9 .785 3.87.168 6.71.265 8.48.265 2.11 0 5.01-.097 8.73-.265 3.69-.18 6.62-.442 8.72-.785V204.605c-13.07-3.535-27.6-6.613-43.66-9.246-16.05-2.66-32.53-3.98-49.47-3.98-16.6 0-32.19 1.582-46.82 4.769-14.65 3.168-27.34 9.258-38.11 18.247-10.78 9.003-19.33 21.433-25.66 37.304-6.35 15.883-9.53 36.508-9.53 61.91v153.993"
      ></path>
      <path
        fill="#393536"
        d="M2578.27 231.602c1.76-3.536 3.43-8.317 5.03-14.301 1.57-5.996 2.72-10.938 3.43-14.813-8.82-3.172-18.87-5.824-30.15-7.945-11.3-2.102-23.82-3.164-37.58-3.164-44.1 0-77.61 12.074-100.54 36.242-22.93 24.164-34.39 59.176-34.39 105.039 0 20.11 2.82 38.719 8.46 55.824 5.64 17.11 13.95 32.016 24.89 44.719 10.91 12.703 24.6 22.66 40.98 29.891 16.43 7.226 35.37 10.851 56.9 10.851 13.4 0 26.18-.976 38.37-2.91 12.16-1.949 21.76-4.152 28.83-6.609 0-4.59-.62-9.883-1.84-15.875-1.25-6.008-2.57-10.77-3.99-14.293-7.06 2.469-15.97 4.582-26.71 6.347-10.77 1.762-22.33 2.649-34.66 2.649-15.88 0-29.73-2.738-41.55-8.199-11.81-5.477-21.67-13.153-29.62-23.024-7.94-9.875-13.85-21.515-17.74-34.922-3.88-13.41-5.81-28.218-5.81-44.449 0-38.09 9.07-66.062 27.25-83.867 18.18-17.82 42.78-26.715 73.82-26.715 10.59 0 20.71.871 30.43 2.625 9.69 1.781 18.43 4.067 26.19 6.899"
      ></path>
      <path
        fill="#393536"
        d="M2669.28 437.969h-46.02c-.36 1.754-.63 4.043-.82 6.875-.18 2.816-.26 5.633-.26 8.465 0 2.824.08 5.461.26 7.929.19 2.473.46 4.59.82 6.364h46.02v50.793l32.8 32.281h2.13v-83.074h73.01c.35-1.774.62-3.891.79-6.364.18-2.468.27-5.105.27-7.929 0-2.832-.09-5.649-.27-8.465-.17-2.832-.44-5.121-.79-6.875h-73.01V262.285c0-8.828 1.13-15.793 3.42-20.898 2.29-5.117 5.31-9.074 9.02-11.91 3.71-2.821 7.92-4.68 12.68-5.559a80.422 80.422 0 0114.56-1.313c12.34 0 23.11 1.59 32.28 4.758 2.47-9.183 4.22-19.054 5.29-29.625-12.69-3.89-27.52-5.824-44.46-5.824-20.1 0-36.43 5.371-48.93 16.137-12.53 10.754-18.79 28.301-18.79 52.637v177.281"
      ></path>
      <path
        fill="#393536"
        d="M2919.03 222.078c28.22 0 49.29 9.863 63.22 29.621 13.94 19.754 20.91 46.742 20.91 80.961 0 34.215-6.97 61.195-20.91 80.965-13.93 19.75-35 29.629-63.22 29.629-28.23 0-49.31-9.879-63.24-29.629-13.94-19.77-20.9-46.75-20.9-80.965 0-34.219 6.96-61.207 20.9-80.961 13.93-19.758 35.01-29.621 63.24-29.621zm0-30.699c-20.11 0-37.75 3.609-52.91 10.848-15.17 7.222-27.79 17.187-37.84 29.902-10.05 12.699-17.55 27.68-22.5 44.98-4.95 17.266-7.41 35.797-7.41 55.551 0 19.75 2.46 38.278 7.41 55.567 4.95 17.281 12.45 32.273 22.5 44.976 10.05 12.703 22.67 22.66 37.84 29.891 15.16 7.226 32.8 10.851 52.91 10.851s37.64-3.625 52.64-10.851c15-7.231 27.51-17.188 37.58-29.891 10.04-12.703 17.64-27.695 22.76-44.976 5.11-17.289 7.68-35.817 7.68-55.567 0-19.754-2.57-38.285-7.68-55.551-5.12-17.3-12.72-32.281-22.76-44.98-10.07-12.715-22.58-22.68-37.58-29.902-15-7.239-32.53-10.848-52.64-10.848"
      ></path>
      <path
        fill="#393536"
        d="M3094.7 467.602c2.82.343 5.57.605 8.19.785 2.66.168 5.21.265 7.68.265 2.82 0 5.48-.097 7.95-.265 2.46-.18 5.1-.442 7.93-.785.7-6.364 1.23-13.852 1.58-22.5.35-8.641.53-16.489.53-23.543 7.07 13.046 16.93 24.074 29.65 33.066 12.69 9 29.43 13.504 50.25 13.504h5.55c1.95 0 4.17-.184 6.62-.527 1.06-6.008 1.6-11.649 1.6-16.934 0-5.652-.54-11.121-1.6-16.41-2.83.347-5 .527-6.62.527h-5c-24 0-43.22-7.578-57.69-22.754-14.47-15.172-21.69-40.394-21.69-75.668V197.738c-2.12-.347-5.03-.629-8.74-.8-3.7-.172-6.61-.274-8.73-.274-1.77 0-4.6.102-8.46.274-3.89.171-6.89.453-9 .8v269.864"
      ></path>
      <path
        fill="#393536"
        d="M406.344 34.824c3.777 0 7.047.723 9.804 2.207 2.762 1.465 5.047 3.602 6.86 6.406 1.82 2.801 3.18 6.16 4.082 10.098.914 3.926 1.367 8.38 1.367 13.38 0 4.92-.453 9.354-1.367 13.32-.902 3.984-2.262 7.343-4.082 10.097-1.813 2.773-4.098 4.883-6.86 6.367-2.757 1.465-6.027 2.195-9.804 2.195-3.785 0-7.051-.73-9.817-2.195-2.757-1.484-5.043-3.594-6.859-6.367-1.816-2.754-3.18-6.113-4.082-10.098-.906-3.965-1.356-8.398-1.356-13.32 0-5 .45-9.453 1.356-13.379.902-3.937 2.266-7.297 4.082-10.098 1.816-2.804 4.102-4.94 6.859-6.406 2.766-1.484 6.032-2.207 9.817-2.207zm0-9.98c-5.906 0-10.996 1.035-15.313 3.117-4.312 2.078-7.883 4.988-10.718 8.726-2.84 3.75-4.954 8.196-6.352 13.333-1.402 5.136-2.102 10.78-2.102 16.894 0 6.121.7 11.758 2.102 16.895 1.398 5.156 3.512 9.59 6.352 13.34 2.835 3.73 6.406 6.66 10.718 8.789 4.317 2.109 9.407 3.164 15.313 3.164 5.898 0 10.996-1.055 15.304-3.164 4.313-2.129 7.887-5.059 10.723-8.79 2.832-3.75 4.938-8.183 6.297-13.34 1.355-5.136 2.039-10.773 2.039-16.894 0-6.113-.684-11.758-2.039-16.894-1.359-5.137-3.465-9.582-6.297-13.332-2.836-3.739-6.41-6.649-10.723-8.727-4.308-2.082-9.406-3.117-15.304-3.117"
      ></path>
      <path
        fill="#393536"
        d="M477.676 65.781a74.832 74.832 0 013.183-.344c.903-.066 2.227-.105 3.965-.105 2.344 0 4.668.234 6.977.73 2.304.489 4.359 1.38 6.187 2.669 1.801 1.289 3.262 3.046 4.356 5.28 1.097 2.22 1.648 5.11 1.648 8.665 0 3.105-.472 5.71-1.418 7.832-.949 2.12-2.246 3.816-3.914 5.105-1.664 1.282-3.664 2.188-6.008 2.727-2.343.516-4.882.793-7.597.793-2.805 0-5.254-.13-7.379-.344zm-11.567 42.071c1.141.156 2.481.312 4.028.457a183.734 183.734 0 009.98.683 118.6 118.6 0 004.938.11c4.148 0 8.109-.411 11.843-1.25 3.747-.832 7.04-2.266 9.875-4.305 2.836-2.043 5.082-4.738 6.743-8.11 1.66-3.367 2.504-7.578 2.504-12.644 0-5.293-.891-9.688-2.676-13.223-1.766-3.507-4.11-6.328-7.028-8.437-2.914-2.121-6.214-3.613-9.925-4.485a49.573 49.573 0 00-11.336-1.296c-1.442 0-2.711.02-3.801.039a50.132 50.132 0 00-3.578.293V26.199a45.883 45.883 0 00-5.781-.34c-.903 0-1.872.02-2.887.059a24.4 24.4 0 00-2.899.281v81.653"
      ></path>
      <path
        fill="#393536"
        d="M538.809 107.754h44.8c.223-1.524.34-3.184.34-5 0-.84-.019-1.699-.058-2.609a16.182 16.182 0 00-.282-2.5h-33.234v-23.36h26.539c.152-.75.266-1.57.344-2.43.07-.878.109-1.718.109-2.558 0-.828-.039-1.7-.109-2.61a22.96 22.96 0 00-.344-2.507h-26.539V36.29h34.137c.23-1.505.347-3.165.347-4.981 0-.84-.019-1.711-.054-2.618-.047-.898-.137-1.738-.293-2.492h-45.703v81.555"
      ></path>
      <path
        fill="#393536"
        d="M608.105 107.754c.836.144 1.719.254 2.665.332.945.078 1.835.117 2.668.117.832 0 1.722-.039 2.667-.117a30.58 30.58 0 002.665-.332l35.5-61.25v61.25c.91.144 1.847.254 2.839.332.977.078 1.961.117 2.942.117.828 0 1.695-.039 2.605-.117a30.76 30.76 0 002.617-.332V26.199a32.44 32.44 0 00-5.335-.457 32.445 32.445 0 00-5.329.457l-35.617 60.91V26.2a29.695 29.695 0 00-2.66-.34 33.892 33.892 0 00-2.781-.117c-.985 0-1.946.04-2.899.117-.941.079-1.789.196-2.547.34v81.555"
      ></path>
      <path
        fill="#393536"
        d="M727.078 38.563a80.7 80.7 0 017.824-2.391c2.719-.664 6.051-1.016 9.981-1.016 6.195 0 10.836 1.27 13.894 3.797 3.063 2.54 4.598 5.969 4.598 10.266 0 2.12-.324 3.926-.973 5.449-.632 1.504-1.601 2.813-2.886 3.906-1.289 1.113-2.891 2.11-4.821 3.008a152.2 152.2 0 01-6.75 2.95l-6.461 2.605a44.679 44.679 0 00-6.011 3.02 18.386 18.386 0 00-4.707 4.023c-1.325 1.582-2.364 3.41-3.121 5.496-.758 2.082-1.141 4.55-1.141 7.433 0 6.875 2.348 12.266 7.035 16.153 4.688 3.906 11.27 5.84 19.738 5.84 3.633 0 7.071-.293 10.321-.899 3.254-.605 6.125-1.367 8.621-2.265-.379-3.184-1.207-6.32-2.496-9.415-2.043.762-4.407 1.426-7.086 2.032-2.692.605-5.727.918-9.129.918-4.77 0-8.442-.965-11.004-2.903-2.57-1.922-3.856-4.812-3.856-8.66 0-1.601.321-3.02.961-4.277a11.403 11.403 0 012.555-3.274c1.055-.945 2.305-1.804 3.742-2.546a40.274 40.274 0 014.532-2.051l6.355-2.492c3.02-1.22 5.711-2.47 8.055-3.805 2.343-1.32 4.34-2.863 6.011-4.652 1.657-1.766 2.93-3.875 3.793-6.297.871-2.403 1.317-5.254 1.317-8.496 0-7.793-2.699-13.926-8.059-18.438-5.375-4.492-12.898-6.738-22.574-6.738-2.344 0-4.457.058-6.352.215a55.91 55.91 0 00-5.269.683 49.138 49.138 0 00-4.711 1.133c-1.516.469-3.059.945-4.649 1.484.153 1.66.493 3.36 1.028 5.098a94.19 94.19 0 001.695 5.106"
      ></path>
      <path
        fill="#393536"
        d="M830.859 34.824c3.782 0 7.039.723 9.809 2.207 2.762 1.465 5.047 3.602 6.855 6.406 1.825 2.801 3.18 6.16 4.082 10.098.915 3.926 1.368 8.38 1.368 13.38 0 4.92-.453 9.354-1.368 13.32-.902 3.984-2.257 7.343-4.082 10.097-1.808 2.773-4.093 4.883-6.855 6.367-2.77 1.465-6.027 2.195-9.809 2.195-3.781 0-7.05-.73-9.812-2.195-2.766-1.484-5.047-3.594-6.863-6.367-1.817-2.754-3.176-6.113-4.082-10.098-.907-3.965-1.364-8.398-1.364-13.32 0-5 .457-9.453 1.364-13.379.906-3.937 2.265-7.297 4.082-10.098 1.816-2.804 4.097-4.94 6.863-6.406 2.762-1.484 6.031-2.207 9.812-2.207zm0-9.98c-5.902 0-11 1.035-15.316 3.117-4.309 2.078-7.875 4.988-10.715 8.726-2.832 3.75-4.949 8.196-6.351 13.333-1.403 5.136-2.098 10.78-2.098 16.894 0 6.121.695 11.758 2.098 16.895 1.402 5.156 3.519 9.59 6.351 13.34 2.84 3.73 6.406 6.66 10.715 8.789 4.316 2.109 9.414 3.164 15.316 3.164 5.899 0 11-1.055 15.309-3.164 4.316-2.129 7.887-5.059 10.723-8.79 2.832-3.75 4.929-8.183 6.293-13.34 1.363-5.136 2.035-10.773 2.035-16.894 0-6.113-.672-11.758-2.035-16.894-1.364-5.137-3.461-9.582-6.293-13.332-2.836-3.739-6.407-6.649-10.723-8.727-4.309-2.082-9.41-3.117-15.309-3.117"
      ></path>
      <path
        fill="#393536"
        d="M889.836 107.754c1.805.215 3.773.332 5.891.332 2.043 0 3.937-.117 5.675-.332v-46.29c0-4.687.293-8.69.903-12.01.609-3.321 1.59-6.036 2.961-8.106 1.355-2.09 3.14-3.614 5.379-4.59 2.226-.996 4.968-1.485 8.222-1.485 3.246 0 5.969.489 8.164 1.485 2.188.976 3.965 2.5 5.332 4.59 1.36 2.07 2.344 4.785 2.946 8.105.609 3.32.914 7.324.914 12.012v46.289c1.882.215 3.812.332 5.785.332 2.113 0 4.082-.117 5.89-.332v-48.32c0-5.45-.503-10.332-1.531-14.637-1.019-4.309-2.683-7.941-4.984-10.879-2.317-2.961-5.32-5.2-9.02-6.75-3.707-1.555-8.207-2.324-13.496-2.324-5.293 0-9.789.77-13.5 2.324-3.703 1.55-6.711 3.789-9.015 6.75-2.309 2.938-3.969 6.57-4.989 10.879-1.027 4.305-1.527 9.187-1.527 14.637v48.32"
      ></path>
      <path
        fill="#393536"
        d="M975.805 107.852c1.66.156 3.172.312 4.539.457 1.355.148 2.691.285 4.019.402 1.325.117 2.703.207 4.145.281 1.433.071 3.015.11 4.762.11 3.855 0 7.67-.383 11.45-1.133 3.79-.75 7.15-2.071 10.09-3.965 2.96-1.895 5.35-4.445 7.21-7.656 1.85-3.215 2.78-7.285 2.78-12.188 0-2.95-.49-5.644-1.47-8.066-.99-2.414-2.24-4.563-3.75-6.457a26.452 26.452 0 00-5.16-4.93c-1.93-1.406-3.79-2.55-5.62-3.457l-1.35-.684 23.7-34.367c-2.04-.23-4.35-.34-6.92-.34-2.04 0-4.08.11-6.12.34l-26.094 37.766v.45l.91.222c2.047.539 4.199 1.25 6.465 2.168a27.003 27.003 0 016.299 3.566 19.806 19.806 0 014.81 5.332c1.29 2.078 1.94 4.59 1.94 7.55 0 5.438-1.61 9.481-4.82 12.13-3.22 2.644-7.54 3.96-12.991 3.96a58.84 58.84 0 01-3.57-.105 100.219 100.219 0 01-3.688-.344V26.2c-.832-.066-1.762-.144-2.781-.23-1.02-.07-1.985-.11-2.891-.11-.906 0-1.894.02-2.949.059a24.39 24.39 0 00-2.945.281v81.653"
      ></path>
      <path
        fill="#393536"
        d="M1102.14 38.105c1.66-3.242 2.72-6.386 3.18-9.414-3.18-1.347-6.43-2.343-9.76-2.949-3.32-.598-6.92-.898-10.77-.898-5.89 0-11.21.957-15.93 2.89-4.73 1.934-8.72 4.688-11.97 8.274-3.25 3.59-5.75 7.965-7.49 13.094-1.73 5.156-2.61 10.937-2.61 17.363 0 6.504.88 12.375 2.61 17.637 1.74 5.253 4.24 9.726 7.49 13.437 3.25 3.711 7.22 6.563 11.91 8.555 4.69 2 9.94 3.008 15.76 3.008 4.31 0 8.01-.293 11.12-.899 3.1-.605 5.86-1.328 8.28-2.148-.16-1.758-.47-3.352-.96-4.825a78.7 78.7 0 00-1.76-4.707c-1.14.371-2.24.704-3.3 1.016-1.06.293-2.18.566-3.4.8-1.21.216-2.54.391-4.02.509-1.48.105-3.16.156-5.05.156-8.24 0-14.65-2.793-19.22-8.379-4.58-5.606-6.87-13.652-6.87-24.16 0-5.371.64-10.02 1.93-13.957 1.29-3.922 3.1-7.176 5.45-9.735 2.34-2.59 5.16-4.511 8.44-5.8 3.29-1.29 6.98-1.922 11.06-1.922 3.18 0 6.05.261 8.63.789 2.56.527 4.98 1.289 7.25 2.265"
      ></path>
      <path
        fill="#393536"
        d="M1128.68 107.754h44.8c.23-1.524.35-3.184.35-5 0-.84-.03-1.699-.07-2.609-.03-.907-.13-1.747-.28-2.5h-33.23v-23.36h26.54c.15-.75.27-1.57.33-2.43.08-.878.12-1.718.12-2.558 0-.828-.04-1.7-.12-2.61-.06-.906-.18-1.746-.33-2.507h-26.54V36.29h34.13c.23-1.505.35-3.165.35-4.981 0-.84-.02-1.711-.06-2.618-.04-.898-.13-1.738-.29-2.492h-45.7v81.555"
      ></path>
      <path
        fill="#393536"
        d="M1231.32 38.563c2.49-.907 5.1-1.708 7.82-2.391 2.73-.664 6.05-1.016 9.99-1.016 6.2 0 10.83 1.27 13.9 3.797 3.05 2.54 4.58 5.969 4.58 10.266 0 2.12-.32 3.926-.96 5.449a10.437 10.437 0 01-2.9 3.906c-1.28 1.113-2.89 2.11-4.8 3.008-1.94.898-4.18 1.895-6.76 2.95l-6.47 2.605c-2.19.91-4.2 1.926-6 3.02a18.566 18.566 0 00-4.72 4.023c-1.32 1.582-2.36 3.41-3.11 5.496-.76 2.082-1.14 4.55-1.14 7.433 0 6.875 2.35 12.266 7.03 16.153 4.7 3.906 11.27 5.84 19.74 5.84 3.63 0 7.07-.293 10.33-.899 3.24-.605 6.11-1.367 8.61-2.265-.38-3.184-1.21-6.32-2.5-9.415-2.03.762-4.4 1.426-7.08 2.032-2.69.605-5.73.918-9.14.918-4.76 0-8.42-.965-10.99-2.903-2.58-1.922-3.86-4.812-3.86-8.66 0-1.601.32-3.02.96-4.277a11.42 11.42 0 012.56-3.274 17.93 17.93 0 013.74-2.546 40.405 40.405 0 014.53-2.051l6.36-2.492c3.02-1.22 5.7-2.47 8.05-3.805 2.34-1.32 4.34-2.863 6.01-4.652 1.66-1.766 2.93-3.875 3.8-6.297.87-2.403 1.3-5.254 1.3-8.496 0-7.793-2.68-13.926-8.05-18.438-5.38-4.492-12.89-6.738-22.57-6.738-2.34 0-4.46.058-6.35.215-1.89.156-3.65.39-5.27.683-1.63.313-3.2.684-4.71 1.133-1.52.469-3.06.945-4.65 1.484.15 1.66.49 3.36 1.01 5.098.54 1.738 1.11 3.445 1.71 5.106"
      ></path>
      <path
        fill="#393536"
        d="M1335.1 34.824c3.78 0 7.05.723 9.81 2.207 2.76 1.465 5.05 3.602 6.85 6.406 1.83 2.801 3.19 6.16 4.09 10.098.92 3.926 1.37 8.38 1.37 13.38 0 4.92-.45 9.354-1.37 13.32-.9 3.984-2.26 7.343-4.09 10.097-1.8 2.773-4.09 4.883-6.85 6.367-2.76 1.465-6.03 2.195-9.81 2.195-3.78 0-7.05-.73-9.81-2.195-2.76-1.484-5.05-3.594-6.86-6.367-1.81-2.754-3.18-6.113-4.08-10.098-.91-3.965-1.36-8.398-1.36-13.32 0-5 .45-9.453 1.36-13.379.9-3.937 2.27-7.297 4.08-10.098 1.81-2.804 4.1-4.94 6.86-6.406 2.76-1.484 6.03-2.207 9.81-2.207zm0-9.98c-5.9 0-11 1.035-15.31 3.117-4.31 2.078-7.88 4.988-10.72 8.726-2.84 3.75-4.95 8.196-6.35 13.333-1.4 5.136-2.1 10.78-2.1 16.894 0 6.121.7 11.758 2.1 16.895 1.4 5.156 3.51 9.59 6.35 13.34 2.84 3.73 6.41 6.66 10.72 8.789 4.31 2.109 9.41 3.164 15.31 3.164s11-1.055 15.31-3.164c4.31-2.129 7.88-5.059 10.72-8.79 2.83-3.75 4.93-8.183 6.29-13.34 1.36-5.136 2.05-10.773 2.05-16.894 0-6.113-.69-11.758-2.05-16.894-1.36-5.137-3.46-9.582-6.29-13.332-2.84-3.739-6.41-6.649-10.72-8.727-4.31-2.082-9.41-3.117-15.31-3.117"
      ></path>
      <path
        fill="#393536"
        d="M1394.86 107.754h42.65c.15-.762.26-1.574.35-2.441.06-.879.11-1.719.11-2.559 0-.84-.05-1.699-.11-2.609-.09-.907-.2-1.747-.35-2.5h-31.07V73.73h25.97c.15-.84.26-1.7.34-2.56.07-.87.11-1.73.11-2.558 0-.832-.04-1.68-.11-2.55-.08-.868-.19-1.72-.34-2.547h-25.97V26.199a37.23 37.23 0 00-2.79-.34c-.94-.078-1.94-.117-3.01-.117-.97 0-1.98.04-3 .117-1.01.078-1.94.196-2.78.34v81.555"
      ></path>
      <path
        fill="#393536"
        d="M1474.6 97.644h-21.21c-.15.754-.26 1.594-.34 2.501-.08.91-.12 1.769-.12 2.609 0 .84.04 1.68.12 2.559.08.867.19 1.679.34 2.441h53.99c.14-.762.26-1.555.33-2.402.08-.821.12-1.653.12-2.481 0-.84-.04-1.719-.12-2.668-.07-.945-.19-1.805-.33-2.559h-21.21V26.2c-1.75-.23-3.63-.34-5.68-.34-2.11 0-4.08.11-5.89.34v71.446"
      ></path>
      <path
        fill="#393536"
        d="M1521.78 107.754c.83.144 1.87.254 3.12.332 1.25.078 2.39.117 3.45.117s2.14-.039 3.24-.117c1.09-.078 2.1-.188 3-.332l13.95-67.942 16.79 67.942c.91.144 1.91.254 3 .332 1.1.078 2.14.117 3.13.117.9 0 1.92-.039 3.06-.117 1.13-.078 2.11-.188 2.95-.332l16.9-68.633 14.17 68.633c.83.144 1.72.254 2.67.332.94.078 1.87.117 2.78.117 1.05 0 2.14-.039 3.23-.117 1.1-.078 2.05-.188 2.89-.332l-19.62-81.555a34.68 34.68 0 00-3.18-.34 51.33 51.33 0 00-3.29-.117c-1.06 0-2.23.04-3.52.117-1.27.079-2.45.196-3.51.34l-16.11 63.86-16.32-63.86a48.1 48.1 0 00-3.46-.34c-1.25-.078-2.4-.117-3.46-.117-.91 0-1.95.04-3.12.117-1.17.079-2.21.196-3.12.34l-19.62 81.555"
      ></path>
      <path
        fill="#393536"
        d="M1651.41 55.117h24.84l-12.49 41.621zm27.9-10.09h-30.97l-5.55-18.828c-.98-.144-1.97-.262-2.95-.34-.99-.078-1.96-.117-2.95-.117-1.06 0-2.1.04-3.12.117-1.02.078-1.94.196-2.78.34l26.54 81.555c.99.144 2.05.254 3.18.332 1.14.078 2.31.117 3.51.117 1.06 0 2.16-.039 3.29-.117 1.14-.078 2.23-.188 3.3-.332l26.42-81.555c-.9-.144-1.93-.262-3.06-.34a48.099 48.099 0 00-3.3-.117c-.97 0-1.97.04-3 .117-1.03.078-1.98.196-2.89.34l-5.67 18.828"
      ></path>
      <path
        fill="#393536"
        d="M1717.88 107.852c1.66.156 3.17.312 4.54.457 1.35.148 2.69.285 4.01.402 1.33.117 2.71.207 4.15.281 1.44.071 3.02.11 4.76.11 3.85 0 7.67-.383 11.45-1.133 3.78-.75 7.15-2.071 10.1-3.965 2.95-1.895 5.34-4.445 7.21-7.656 1.84-3.215 2.77-7.285 2.77-12.188 0-2.95-.49-5.644-1.47-8.066a26.9 26.9 0 00-3.74-6.457 26.504 26.504 0 00-5.17-4.93c-1.92-1.406-3.8-2.55-5.62-3.457l-1.35-.684 23.71-34.367c-2.05-.23-4.37-.34-6.93-.34-2.04 0-4.09.11-6.12.34l-26.09 37.766v.45l.91.222c2.05.539 4.19 1.25 6.46 2.168 2.28.91 4.37 2.101 6.3 3.566a19.806 19.806 0 014.81 5.332c1.29 2.078 1.93 4.59 1.93 7.55 0 5.438-1.6 9.481-4.81 12.13-3.22 2.644-7.54 3.96-12.99 3.96-1.28 0-2.48-.038-3.57-.105-1.09-.078-2.32-.195-3.69-.344V26.2c-.82-.066-1.76-.144-2.77-.23-1.02-.07-2-.11-2.9-.11-.91 0-1.89.02-2.94.059-1.07.039-2.05.137-2.95.281v81.653"
      ></path>
      <path
        fill="#393536"
        d="M1793.85 107.754h44.81c.22-1.524.34-3.184.34-5 0-.84-.02-1.699-.07-2.609-.04-.907-.12-1.747-.27-2.5h-33.24v-23.36h26.56c.13-.75.25-1.57.32-2.43.08-.878.12-1.718.12-2.558 0-.828-.04-1.7-.12-2.61-.07-.906-.19-1.746-.32-2.507h-26.56V36.29h34.16c.2-1.505.33-3.165.33-4.981 0-.84-.02-1.711-.06-2.618a19.93 19.93 0 00-.27-2.492h-45.73v81.555"
      ></path>
      <path
        fill="#393536"
        d="M1898.55 107.754h42.64c.15-.762.26-1.574.35-2.441.07-.879.11-1.719.11-2.559 0-.84-.04-1.699-.11-2.609-.09-.907-.2-1.747-.35-2.5h-31.09V73.73h25.99c.15-.84.26-1.7.33-2.56.09-.87.12-1.73.12-2.558 0-.832-.03-1.68-.12-2.55-.07-.868-.18-1.72-.33-2.547h-25.99V26.199c-.9-.144-1.83-.262-2.77-.34-.95-.078-1.93-.117-3.01-.117-.99 0-1.98.04-3 .117-1.01.078-1.95.196-2.77.34v81.555"
      ></path>
      <path
        fill="#393536"
        d="M1995.61 34.824c3.8 0 7.06.723 9.83 2.207 2.75 1.465 5.04 3.602 6.86 6.406 1.81 2.801 3.17 6.16 4.08 10.098.91 3.926 1.37 8.38 1.37 13.38 0 4.92-.46 9.354-1.37 13.32-.91 3.984-2.27 7.343-4.08 10.097-1.82 2.773-4.11 4.883-6.86 6.367-2.77 1.465-6.03 2.195-9.83 2.195-3.76 0-7.04-.73-9.79-2.195-2.77-1.484-5.05-3.594-6.86-6.367-1.82-2.754-3.17-6.113-4.09-10.098-.9-3.965-1.36-8.398-1.36-13.32 0-5 .46-9.453 1.36-13.379.92-3.937 2.27-7.297 4.09-10.098 1.81-2.804 4.09-4.94 6.86-6.406 2.75-1.484 6.03-2.207 9.79-2.207zm0-9.98c-5.88 0-10.99 1.035-15.3 3.117-4.32 2.078-7.87 4.988-10.72 8.726-2.84 3.75-4.95 8.196-6.34 13.333-1.41 5.136-2.1 10.78-2.1 16.894 0 6.121.69 11.758 2.1 16.895 1.39 5.156 3.5 9.59 6.34 13.34 2.85 3.73 6.4 6.66 10.72 8.789 4.31 2.109 9.42 3.164 15.3 3.164 5.91 0 11.02-1.055 15.32-3.164 4.31-2.129 7.88-5.059 10.73-8.79 2.83-3.75 4.93-8.183 6.29-13.34 1.36-5.136 2.04-10.773 2.04-16.894 0-6.113-.68-11.758-2.04-16.894-1.36-5.137-3.46-9.582-6.29-13.332-2.85-3.739-6.42-6.649-10.73-8.727-4.3-2.082-9.41-3.117-15.32-3.117"
      ></path>
      <path
        fill="#393536"
        d="M2055.62 107.852c1.66.156 3.17.312 4.53.457 1.36.148 2.72.285 4.03.402 1.32.117 2.7.207 4.14.281 1.44.071 3.02.11 4.76.11 3.86 0 7.67-.383 11.46-1.133 3.78-.75 7.15-2.071 10.09-3.965 2.94-1.895 5.35-4.445 7.21-7.656 1.85-3.215 2.77-7.285 2.77-12.188 0-2.95-.48-5.644-1.46-8.066-.99-2.414-2.24-4.563-3.75-6.457a26.452 26.452 0 00-5.16-4.93c-1.93-1.406-3.81-2.55-5.62-3.457l-1.36-.684 23.72-34.367c-2.05-.23-4.36-.34-6.93-.34-2.04 0-4.09.11-6.13.34l-26.08 37.766v.45l.91.222c2.03.539 4.19 1.25 6.46 2.168 2.27.91 4.37 2.101 6.29 3.566a19.88 19.88 0 014.83 5.332c1.27 2.078 1.92 4.59 1.92 7.55 0 5.438-1.61 9.481-4.82 12.13-3.22 2.644-7.53 3.96-12.97 3.96-1.3 0-2.49-.038-3.59-.105-1.09-.078-2.32-.195-3.69-.344V26.2c-.82-.066-1.76-.144-2.77-.23-1.02-.07-1.97-.11-2.9-.11-.9 0-1.89.02-2.94.059-1.07.039-2.05.137-2.95.281v81.653"
      ></path>
      <path
        fill="#393536"
        d="M2178.56 35.156c1.06-.148 2.39-.273 4.03-.332 1.62-.09 3.23-.117 4.83-.117 2.71 0 5.27.223 7.64.684 2.39.449 4.49 1.23 6.29 2.324a11.983 11.983 0 014.32 4.422c1.06 1.855 1.59 4.21 1.59 7.082 0 2.793-.49 5.164-1.46 7.09-1 1.933-2.34 3.476-4.04 4.648-1.7 1.18-3.73 2.004-6.08 2.5-2.34.488-4.86.723-7.6.723h-9.52zm8.28 38.575c5.15 0 9.08 1.105 11.81 3.34 2.7 2.226 4.06 5.574 4.06 10.038 0 4.309-1.44 7.52-4.35 9.63-2.92 2.117-6.88 3.183-11.85 3.183-1.51 0-2.97-.04-4.38-.117a41.668 41.668 0 01-3.57-.332V73.73zm-19.75 34.023c1.91.359 4.56.672 7.96.898 3.4.227 6.84.34 10.32.34 4.3 0 8.23-.379 11.79-1.14 3.56-.743 6.6-1.973 9.13-3.68a17.758 17.758 0 005.91-6.574c1.39-2.696 2.09-5.957 2.09-9.817 0-2.332-.35-4.52-1.09-6.512-.7-2.011-1.67-3.788-2.88-5.343-1.2-1.551-2.61-2.82-4.2-3.856-1.58-1.015-3.21-1.757-4.87-2.207 2.11-.226 4.25-.781 6.4-1.699 2.15-.898 4.1-2.187 5.84-3.86 1.74-1.667 3.17-3.757 4.26-6.288 1.1-2.528 1.64-5.614 1.64-9.246 0-4.387-.86-8.106-2.61-11.172-1.75-3.067-4.1-5.54-7.09-7.43-2.98-1.887-6.5-3.254-10.53-4.074-4.06-.84-8.38-1.25-12.99-1.25-2.88 0-6.02.125-9.43.39-3.4.274-6.61.586-9.65.965v81.555"
      ></path>
      <path
        fill="#393536"
        d="M2242.97 107.754c.91.144 1.85.254 2.84.332a37.04 37.04 0 005.9 0c.97-.078 1.93-.188 2.84-.332V26.199c-.91-.144-1.85-.261-2.79-.34-.94-.078-1.95-.117-3.01-.117-.97 0-1.98.04-2.99.117-1.02.079-1.97.196-2.79.34v81.555"
      ></path>
      <path
        fill="#393536"
        d="M2314.42 34.824c3.79 0 7.05.723 9.81 2.207 2.77 1.465 5.05 3.602 6.87 6.406 1.81 2.801 3.17 6.16 4.08 10.098.9 3.926 1.37 8.38 1.37 13.38 0 4.92-.47 9.354-1.37 13.32-.91 3.984-2.27 7.343-4.08 10.097-1.82 2.773-4.1 4.883-6.87 6.367-2.76 1.465-6.02 2.195-9.81 2.195-3.77 0-7.04-.73-9.81-2.195-2.76-1.484-5.04-3.594-6.85-6.367-1.83-2.754-3.18-6.113-4.09-10.098-.9-3.965-1.36-8.398-1.36-13.32 0-5 .46-9.453 1.36-13.379.91-3.937 2.26-7.297 4.09-10.098 1.81-2.804 4.09-4.94 6.85-6.406 2.77-1.484 6.04-2.207 9.81-2.207zm0-9.98c-5.89 0-11 1.035-15.3 3.117-4.32 2.078-7.88 4.988-10.73 8.726-2.83 3.75-4.95 8.196-6.34 13.333-1.42 5.136-2.1 10.78-2.1 16.894 0 6.121.68 11.758 2.1 16.895 1.39 5.156 3.51 9.59 6.34 13.34 2.85 3.73 6.41 6.66 10.73 8.789 4.3 2.109 9.41 3.164 15.3 3.164 5.9 0 11.01-1.055 15.31-3.164 4.32-2.129 7.88-5.059 10.72-8.79 2.84-3.75 4.94-8.183 6.29-13.34 1.37-5.136 2.04-10.773 2.04-16.894 0-6.113-.67-11.758-2.04-16.894-1.35-5.137-3.45-9.582-6.29-13.332-2.84-3.739-6.4-6.649-10.72-8.727-4.3-2.082-9.41-3.117-15.31-3.117"
      ></path>
      <path
        fill="#393536"
        d="M2374.17 107.754c.9.144 1.86.254 2.86.332a37.293 37.293 0 008.72-.332V26.199c-.9-.144-1.83-.261-2.79-.34-.94-.078-1.94-.117-2.99-.117-.99 0-1.98.04-3 .117-1.03.079-1.96.196-2.8.34v81.555"
      ></path>
      <path
        fill="#393536"
        d="M2414.21 107.754c.83.144 1.73.254 2.67.332.95.078 1.84.117 2.68.117.82 0 1.69-.039 2.64-.117.96-.078 1.85-.188 2.68-.332l35.51-61.25v61.25a37.356 37.356 0 005.77.449c.84 0 1.7-.039 2.61-.117.9-.078 1.79-.188 2.6-.332V26.199c-.81-.144-1.72-.261-2.65-.34-.95-.078-1.85-.117-2.67-.117a32.506 32.506 0 00-5.34.457l-35.6 60.91V26.2a31.02 31.02 0 00-2.66-.34 34.426 34.426 0 00-5.68 0c-.95.079-1.8.196-2.56.34v81.555"
      ></path>
      <path
        fill="#393536"
        d="M2499.85 107.754h42.64c.13-.762.27-1.574.34-2.441a33.778 33.778 0 000-5.168c-.07-.907-.21-1.747-.34-2.5h-31.08V73.73h25.98c.14-.84.26-1.7.32-2.56a24.957 24.957 0 000-5.108c-.06-.868-.18-1.72-.32-2.547h-25.98V26.199a36.96 36.96 0 00-2.78-.34c-.94-.078-1.95-.117-3-.117-1 0-1.99.04-3.01.117-1.02.078-1.95.196-2.77.34v81.555"
      ></path>
      <path
        fill="#393536"
        d="M2596.92 34.824c3.79 0 7.05.723 9.82 2.207 2.76 1.465 5.04 3.602 6.86 6.406 1.81 2.801 3.18 6.16 4.08 10.098.92 3.926 1.36 8.38 1.36 13.38 0 4.92-.44 9.354-1.36 13.32-.9 3.984-2.27 7.343-4.08 10.097-1.82 2.773-4.1 4.883-6.86 6.367-2.77 1.465-6.03 2.195-9.82 2.195-3.77 0-7.04-.73-9.81-2.195-2.75-1.484-5.03-3.594-6.85-6.367-1.83-2.754-3.18-6.113-4.09-10.098-.91-3.965-1.36-8.398-1.36-13.32 0-5 .45-9.453 1.36-13.379.91-3.937 2.26-7.297 4.09-10.098 1.82-2.804 4.1-4.94 6.85-6.406 2.77-1.484 6.04-2.207 9.81-2.207zm0-9.98c-5.89 0-10.99 1.035-15.31 3.117-4.3 2.078-7.88 4.988-10.72 8.726-2.84 3.75-4.95 8.196-6.34 13.333-1.41 5.136-2.1 10.78-2.1 16.894 0 6.121.69 11.758 2.1 16.895 1.39 5.156 3.5 9.59 6.34 13.34 2.84 3.73 6.42 6.66 10.72 8.789 4.32 2.109 9.42 3.164 15.31 3.164 5.9 0 11.01-1.055 15.31-3.164 4.32-2.129 7.89-5.059 10.71-8.79 2.85-3.75 4.95-8.183 6.3-13.34 1.38-5.136 2.04-10.773 2.04-16.894 0-6.113-.66-11.758-2.04-16.894-1.35-5.137-3.45-9.582-6.3-13.332-2.82-3.739-6.39-6.649-10.71-8.727-4.3-2.082-9.41-3.117-15.31-3.117"
      ></path>
      <path
        fill="#393536"
        d="M2656.92 107.852c1.66.156 3.16.312 4.54.457 1.35.148 2.71.285 4.02.402 1.32.117 2.71.207 4.14.281 1.44.071 3.03.11 4.76.11 3.86 0 7.67-.383 11.46-1.133 3.77-.75 7.14-2.071 10.09-3.965 2.95-1.895 5.35-4.445 7.21-7.656 1.85-3.215 2.78-7.285 2.78-12.188 0-2.95-.49-5.644-1.48-8.066-.98-2.414-2.23-4.563-3.73-6.457a26.788 26.788 0 00-5.17-4.93 39.422 39.422 0 00-5.62-3.457l-1.36-.684 23.71-34.367c-2.05-.23-4.35-.34-6.93-.34-2.02 0-4.07.11-6.12.34l-26.08 37.766v.45l.92.222c2.03.539 4.18 1.25 6.45 2.168 2.27.91 4.36 2.101 6.3 3.566a20.217 20.217 0 014.83 5.332c1.27 2.078 1.91 4.59 1.91 7.55 0 5.438-1.61 9.481-4.82 12.13-3.21 2.644-7.54 3.96-12.98 3.96-1.29 0-2.47-.038-3.58-.105a105.62 105.62 0 01-3.69-.344V26.2c-.83-.066-1.76-.144-2.76-.23-1.03-.07-1.99-.11-2.91-.11-.91 0-1.88.02-2.93.059-1.08.039-2.04.137-2.96.281v81.653"
      ></path>
      <path
        fill="#393536"
        d="M2735.16 107.754c.91.144 1.94.254 3.11.332 1.19.078 2.29.117 3.36.117 1.06 0 2.21-.039 3.45-.117 1.25-.078 2.29-.188 3.12-.332l21.1-51.043 21.2 51.043c.76.144 1.71.254 2.84.332 1.14.078 2.22.117 3.31.117.96 0 2.07-.039 3.28-.117 1.21-.078 2.23-.188 3.05-.332l3.86-81.555c-.92-.144-1.84-.261-2.78-.34-.95-.078-1.9-.117-2.88-.117-1 0-1.96.04-2.9.117-.95.079-1.83.196-2.67.34l-2.6 63.41-19.96-46.515c-1.52-.223-3.06-.32-4.66-.32-1.44 0-2.87.097-4.3.32L2744.8 89.93l-2.61-63.73c-.83-.145-1.7-.262-2.61-.34-.89-.079-1.77-.118-2.6-.118-.98 0-1.93.04-2.83.117-.91.079-1.78.196-2.61.34l3.62 81.555"
      ></path>
      <path
        fill="#393536"
        d="M2846.2 55.117h24.83l-12.47 41.621zm27.9-10.09h-30.96l-5.57-18.828c-.98-.144-1.96-.262-2.94-.34-.99-.078-1.98-.117-2.95-.117-1.07 0-2.1.04-3.12.117-1.02.078-1.94.196-2.78.34l26.53 81.555c.99.144 2.05.254 3.18.332 1.14.078 2.3.117 3.52.117 1.06 0 2.15-.039 3.29-.117 1.13-.078 2.24-.188 3.29-.332l26.42-81.555c-.9-.144-1.93-.262-3.06-.34a47.75 47.75 0 00-3.28-.117c-1 0-2 .04-3.02.117-1.01.078-1.98.196-2.89.34l-5.66 18.828"
      ></path>
      <path
        fill="#393536"
        d="M2919.24 97.644h-21.21c-.14.754-.26 1.594-.34 2.501a33.778 33.778 0 000 5.168c.08.867.2 1.679.34 2.441h53.99a25.639 25.639 0 00.45-4.883c0-.84-.03-1.719-.11-2.668-.08-.945-.19-1.805-.34-2.559h-21.2V26.2c-1.75-.23-3.64-.34-5.68-.34-2.12 0-4.08.11-5.9.34v71.446"
      ></path>
      <path
        fill="#393536"
        d="M2973.34 107.754c.91.144 1.85.254 2.84.332a37.293 37.293 0 005.9 0c.97-.078 1.93-.188 2.84-.332V26.199a37.23 37.23 0 00-2.79-.34c-.94-.078-1.94-.117-3-.117-.98 0-1.98.04-3 .117-1.02.079-1.96.196-2.79.34v81.555"
      ></path>
      <path
        fill="#393536"
        d="M3065.43 38.105c1.66-3.242 2.74-6.386 3.2-9.414-3.2-1.347-6.45-2.343-9.78-2.949-3.31-.598-6.91-.898-10.76-.898-5.9 0-11.22.957-15.94 2.89-4.72 1.934-8.71 4.688-11.97 8.274-3.25 3.59-5.75 7.965-7.48 13.094-1.74 5.156-2.6 10.937-2.6 17.363 0 6.504.86 12.375 2.6 17.637 1.73 5.253 4.23 9.726 7.48 13.437 3.26 3.711 7.23 6.563 11.92 8.555 4.68 2 9.93 3.008 15.76 3.008 4.31 0 8-.293 11.12-.899 3.1-.605 5.85-1.328 8.27-2.148-.16-1.758-.47-3.352-.96-4.825a72.358 72.358 0 00-1.76-4.707c-1.13.371-2.23.704-3.28 1.016-1.07.293-2.19.566-3.41.8-1.2.216-2.55.391-4.03.509-1.47.105-3.15.156-5.04.156-8.24 0-14.64-2.793-19.23-8.379-4.56-5.606-6.86-13.652-6.86-24.16 0-5.371.65-10.02 1.92-13.957 1.29-3.922 3.11-7.176 5.45-9.735 2.35-2.59 5.17-4.511 8.45-5.8 3.29-1.29 6.97-1.922 11.06-1.922 3.18 0 6.04.261 8.63.789a36.68 36.68 0 017.24 2.265"
      ></path>
      <path
        fill="#393536"
        d="M3089.92 38.563c2.5-.907 5.11-1.708 7.84-2.391 2.71-.664 6.03-1.016 9.97-1.016 6.21 0 10.84 1.27 13.9 3.797 3.05 2.54 4.59 5.969 4.59 10.266 0 2.12-.32 3.926-.97 5.449a10.384 10.384 0 01-2.88 3.906c-1.3 1.113-2.89 2.11-4.83 3.008-1.93.898-4.18 1.895-6.74 2.95l-6.47 2.605c-2.19.91-4.2 1.926-6.01 3.02a18.691 18.691 0 00-4.71 4.023c-1.32 1.582-2.36 3.41-3.12 5.496-.76 2.082-1.13 4.55-1.13 7.433 0 6.875 2.34 12.266 7.04 16.153 4.68 3.906 11.26 5.84 19.72 5.84 3.63 0 7.08-.293 10.32-.899 3.25-.605 6.13-1.367 8.63-2.265-.39-3.184-1.22-6.32-2.5-9.415-2.04.762-4.41 1.426-7.09 2.032-2.68.605-5.73.918-9.13.918-4.75 0-8.43-.965-11-2.903-2.57-1.922-3.87-4.812-3.87-8.66 0-1.601.34-3.02.99-4.277.63-1.23 1.49-2.344 2.54-3.274a18.757 18.757 0 013.74-2.546 39.763 39.763 0 014.54-2.051l6.36-2.492c3.02-1.22 5.71-2.47 8.03-3.805 2.35-1.32 4.37-2.863 6.02-4.652 1.67-1.766 2.94-3.875 3.81-6.297.86-2.403 1.29-5.254 1.29-8.496 0-7.793-2.67-13.926-8.04-18.438-5.36-4.492-12.89-6.738-22.57-6.738-2.35 0-4.46.058-6.35.215-1.9.156-3.65.39-5.28.683-1.62.313-3.21.684-4.7 1.133-1.5.469-3.07.945-4.66 1.484.16 1.66.5 3.36 1.03 5.098a95.952 95.952 0 001.69 5.106"
      ></path>
    </g>
  </g>
</svg>

