<?xml version="1.0" encoding="utf-8"?>
<!-- Generator: Adobe Illustrator 27.0.1, SVG Export Plug-In . SVG Version: 6.00 Build 0)  -->
<svg version="1.1"
	 id="svg2" xmlns:svg="http://www.w3.org/2000/svg" xmlns:rdf="http://www.w3.org/1999/02/22-rdf-syntax-ns#" xmlns:dc="http://purl.org/dc/elements/1.1/" xmlns:cc="http://creativecommons.org/ns#" xmlns:inkscape="http://www.inkscape.org/namespaces/inkscape" xmlns:sodipodi="http://sodipodi.sourceforge.net/DTD/sodipodi-0.dtd" sodipodi:docname="bioconductor_logo_rgb.eps"
	 xmlns="http://www.w3.org/2000/svg" xmlns:xlink="http://www.w3.org/1999/xlink" x="0px" y="0px" viewBox="0 0 429.6 123.6"
	 style="enable-background:new 0 0 429.6 123.6;" xml:space="preserve">
<style type="text/css">
	.st0{fill:#393536;}
	.st1{fill:#3792AD;}
	.st2{fill:#68981C;}
</style>
<sodipodi:namedview  bordercolor="#666666" borderopacity="1" gridtolerance="10" guidetolerance="10" id="namedview4" inkscape:pageopacity="0" inkscape:pageshadow="2" inkscape:window-height="480" inkscape:window-width="640" objecttolerance="10" pagecolor="#ffffff">
	</sodipodi:namedview>
<g id="g10" transform="matrix(1.3333333,0,0,-1.3333333,0,123.62667)" inkscape:groupmode="layer" inkscape:label="ink_ext_XXXXXX">
	<g id="g12" transform="scale(0.1)">
		<path id="path60" class="st0" d="M417.4,227.4c4.9-0.7,11.6-1.3,19.8-1.8c8.3-0.5,17-0.8,26.2-0.8c13.8,0,27.2,1.2,40.5,3.7
			c13.2,2.5,24.9,6.7,35.2,12.7c10.2,6,18.4,13.9,24.6,23.8c6.2,9.9,9.3,22.2,9.3,37c0,14.8-2.6,27.2-7.9,37.3
			c-5.3,10.1-12.5,18.3-21.7,24.6c-9.2,6.4-19.9,10.9-32.3,13.8c-12.3,2.8-25.6,4.2-39.7,4.2h-54L417.4,227.4z M467.7,416.3
			c28.6,0,49.5,6.3,62.7,19c13.2,12.7,19.8,29.3,19.8,49.7c0,19-7,35-20.9,47.9c-13.9,12.9-35.9,19.3-65.9,19.3
			c-9.2,0-17.9-0.4-26.2-1.1c-8.3-0.7-14.9-1.4-19.8-2.1V416.3L467.7,416.3z M380.9,578.2c3.5,0.3,8.6,0.9,15.1,1.6
			c6.5,0.7,13.5,1.4,20.9,2.1c7.4,0.7,14.9,1.2,22.5,1.6c7.6,0.3,14.4,0.5,20.4,0.5c41.6,0,73.6-8,95.8-24.1
			c22.2-16.1,33.3-41,33.3-74.9c0-10.9-1.7-20.9-5-29.9c-3.3-9-7.9-17.1-13.5-24.3c-5.7-7.2-12.3-13.3-19.9-18.3
			c-7.6-4.9-15.4-8.6-23.5-11.1c10.9-1.4,21.5-4.3,31.8-8.7c10.2-4.4,19.3-10.6,27.2-18.5c7.9-7.9,14.3-17.8,19.1-29.6
			c4.8-11.8,7.1-26,7.1-42.6c0-19-3.8-35.5-11.4-49.2c-7.6-13.8-18.2-25.2-31.7-34.4c-13.6-9.2-29.6-16-48.2-20.4
			c-18.5-4.4-38.7-6.6-60.6-6.6c-5.6,0-12,0.2-19,0.5c-7.1,0.3-14.2,0.8-21.4,1.3c-7.2,0.5-14.3,1.2-21.2,2.1
			c-6.9,0.9-12.8,1.7-17.7,2.4L380.9,578.2"/>
		<path id="path62" class="st0" d="M660.8,533.7c-0.4,3.2-0.6,7.1-0.8,11.6c-0.2,4.6-0.3,8.5-0.3,11.6c0,2.8,0.1,6.3,0.3,10.6
			c0.2,4.2,0.4,7.8,0.8,10.6c3.2,0.3,7.1,0.6,11.6,0.8c4.6,0.2,8.5,0.3,11.6,0.3c2.8,0,6.3-0.1,10.6-0.3c4.2-0.2,7.8-0.4,10.6-0.8
			c0.3-2.8,0.6-6.4,0.8-10.6c0.2-4.2,0.3-7.8,0.3-10.6c0-3.2-0.1-7.1-0.3-11.6c-0.2-4.6-0.4-8.5-0.8-11.6c-2.8-0.4-6.4-0.6-10.6-0.8
			c-4.2-0.2-7.8-0.3-10.6-0.3c-3.2,0-7.1,0.1-11.6,0.3C667.9,533.1,664,533.4,660.8,533.7z M678.3,438h-33.9
			c-0.4,1.8-0.6,3.9-0.8,6.3c-0.2,2.5-0.3,5.1-0.3,7.9c0,2.8,0.1,5.6,0.3,8.5c0.2,2.8,0.4,5.1,0.8,6.9h68.8V197.7
			c-2.1-0.3-5-0.6-8.7-0.8c-3.7-0.2-6.6-0.3-8.7-0.3c-1.8,0-4.6,0.1-8.5,0.3c-3.9,0.2-6.9,0.5-9,0.8V438"/>
		<path id="path64" class="st0" d="M888.9,222.1c28.2,0,49.3,9.9,63.2,29.6c13.9,19.8,20.9,46.7,20.9,81c0,34.2-7,61.2-20.9,81
			c-13.9,19.8-35,29.6-63.2,29.6c-28.2,0-49.3-9.9-63.2-29.6c-13.9-19.8-20.9-46.8-20.9-81c0-34.2,7-61.2,20.9-81
			C839.6,231.9,860.7,222.1,888.9,222.1z M888.9,191.4c-20.1,0-37.7,3.6-52.9,10.8c-15.2,7.2-27.8,17.2-37.8,29.9
			c-10.1,12.7-17.6,27.7-22.5,45c-4.9,17.3-7.4,35.8-7.4,55.6c0,19.8,2.5,38.3,7.4,55.6c4.9,17.3,12.4,32.3,22.5,45
			c10.1,12.7,22.7,22.7,37.8,29.9c15.2,7.2,32.8,10.9,52.9,10.9c20.1,0,37.7-3.6,52.6-10.9c15-7.2,27.5-17.2,37.6-29.9
			c10.1-12.7,17.6-27.7,22.8-45c5.1-17.3,7.7-35.8,7.7-55.6c0-19.8-2.6-38.3-7.7-55.6c-5.1-17.3-12.7-32.3-22.8-45
			c-10-12.7-22.6-22.7-37.6-29.9C926.5,195,909,191.4,888.9,191.4"/>
		<path id="path66" class="st0" d="M1243.4,231.6c1.8-3.5,3.4-8.3,5-14.3c1.6-6,2.7-10.9,3.4-14.8c-8.8-3.2-18.9-5.8-30.2-7.9
			c-11.3-2.1-23.8-3.2-37.6-3.2c-44.1,0-77.6,12.1-100.5,36.2c-22.9,24.2-34.4,59.2-34.4,105c0,20.1,2.8,38.7,8.5,55.8
			c5.6,17.1,13.9,32,24.9,44.7c10.9,12.7,24.6,22.7,41,29.9c16.4,7.2,35.4,10.9,56.9,10.9c13.4,0,26.2-1,38.4-2.9
			c12.2-1.9,21.8-4.2,28.8-6.6c0-4.6-0.6-9.9-1.9-15.9c-1.2-6-2.6-10.8-4-14.3c-7.1,2.5-16,4.6-26.7,6.3
			c-10.8,1.8-22.3,2.6-34.7,2.6c-15.9,0-29.7-2.7-41.5-8.2c-11.8-5.5-21.7-13.2-29.6-23c-7.9-9.9-13.8-21.5-17.7-34.9
			c-3.9-13.4-5.8-28.2-5.8-44.4c0-38.1,9.1-66.1,27.2-83.9c18.2-17.8,42.8-26.7,73.8-26.7c10.6,0,20.7,0.9,30.4,2.6
			C1226.9,226.5,1235.6,228.8,1243.4,231.6"/>
		<path id="path68" class="st0" d="M1393.2,222.1c28.2,0,49.3,9.9,63.2,29.6c13.9,19.8,20.9,46.7,20.9,81c0,34.2-7,61.2-20.9,81
			c-13.9,19.8-35,29.6-63.2,29.6c-28.2,0-49.3-9.9-63.2-29.6c-13.9-19.8-20.9-46.8-20.9-81c0-34.2,7-61.2,20.9-81
			C1343.9,231.9,1364.9,222.1,1393.2,222.1z M1393.2,191.4c-20.1,0-37.8,3.6-52.9,10.8c-15.2,7.2-27.8,17.2-37.8,29.9
			c-10.1,12.7-17.6,27.7-22.5,45c-4.9,17.3-7.4,35.8-7.4,55.6c0,19.8,2.5,38.3,7.4,55.6c4.9,17.3,12.4,32.3,22.5,45
			c10.1,12.7,22.7,22.7,37.8,29.9c15.2,7.2,32.8,10.9,52.9,10.9c20.1,0,37.6-3.6,52.6-10.9c15-7.2,27.5-17.2,37.6-29.9
			c10.1-12.7,17.6-27.7,22.8-45c5.1-17.3,7.7-35.8,7.7-55.6c0-19.8-2.6-38.3-7.7-55.6c-5.1-17.3-12.7-32.3-22.8-45
			c-10.1-12.7-22.6-22.7-37.6-29.9C1430.8,195,1413.3,191.4,1393.2,191.4"/>
		<path id="path70" class="st0" d="M1558.8,467.6c2.8,0.3,5.6,0.6,8.2,0.8c2.6,0.2,5.2,0.3,7.7,0.3c2.8,0,5.5-0.1,7.9-0.3
			c2.4-0.2,5.1-0.4,7.9-0.8c0.7-6.4,1.2-14.3,1.6-23.8c0.3-9.5,0.5-17.8,0.5-24.9c3.5,6.3,8.1,12.8,13.8,19.3
			c5.6,6.5,12.3,12.4,19.8,17.7s16.3,9.6,26.2,13c9.9,3.4,20.6,5,32.3,5c31.1,0,53.6-9.3,67.7-27.8c14.1-18.5,21.2-44.5,21.2-78
			V197.7c-2.1-0.3-5-0.6-8.7-0.8c-3.7-0.2-6.6-0.3-8.7-0.3c-1.8,0-4.6,0.1-8.5,0.3c-3.9,0.2-6.9,0.5-9,0.8v159.8
			c0,30-4.7,51.5-14,64.6c-9.3,13-23.4,19.6-42.1,19.6c-12.3,0-24-2.5-34.9-7.4c-10.9-4.9-20.4-12.1-28.3-21.4
			c-7.9-9.4-14.2-20.9-18.8-34.7c-4.6-13.8-6.9-29.5-6.9-47.1V197.7c-2.1-0.3-5-0.6-8.7-0.8c-3.7-0.2-6.6-0.3-8.7-0.3
			c-1.8,0-4.6,0.1-8.5,0.3c-3.9,0.2-6.9,0.5-9,0.8L1558.8,467.6"/>
		<path id="path72" class="st0" d="M2020.3,431.6c-7.1,2.8-16.1,5.4-27,7.7c-10.9,2.3-22.2,3.4-33.9,3.4c-16.6,0-30.9-2.8-43.1-8.5
			c-12.1-5.6-22.3-13.5-30.4-23.5c-8.1-10.1-14.2-22.1-18.3-36.2c-4.1-14.1-6.1-29.6-6.1-46.6c0-36.7,8.7-63.4,26.2-80.2
			c17.5-16.8,42.3-25.1,74.4-25.1c11.6,0,22.8,0.6,33.3,1.8c10.6,1.2,18.9,2.7,24.9,4.5V431.6z M2020.3,586.7c2.1,0.3,5.1,0.6,9,0.8
			c3.9,0.2,6.7,0.3,8.5,0.3c2.1,0,5-0.1,8.7-0.3c3.7-0.2,6.6-0.4,8.7-0.8V204.1c-10.9-3.5-24.5-6.5-40.7-9
			c-16.2-2.5-33.2-3.7-50.8-3.7c-19.4,0-37.6,2.3-54.5,6.9c-16.9,4.6-31.6,12.2-43.9,22.7c-12.3,10.6-22.2,24.5-29.4,41.8
			c-7.2,17.3-10.8,38.6-10.8,64c0,23.3,3.2,44,9.5,62.2c6.3,18.2,15.3,33.5,27,46c11.7,12.5,25.7,22.1,42.1,28.8
			c16.4,6.7,34.5,10,54.2,10c11.7,0,23.2-1,34.7-2.9c11.4-1.9,20.7-4.2,27.8-6.6L2020.3,586.7"/>
		<path id="path74" class="st0" d="M2114.6,467.6c2.1,0.3,5.1,0.6,9,0.8c3.9,0.2,6.7,0.3,8.5,0.3c2.1,0,5-0.1,8.7-0.3
			c3.7-0.2,6.6-0.4,8.7-0.8V315.7c0-19,1.9-34.7,5.8-46.8c3.9-12.2,9.6-21.7,17.2-28.6c7.6-6.9,16.8-11.6,27.8-14.3
			c10.9-2.6,23.3-4,37-4c11.6,0,22.1,0.6,31.2,1.8c9.2,1.2,17.3,2.9,24.3,5v238.7c2.1,0.3,5.1,0.6,9,0.8c3.9,0.2,6.7,0.3,8.5,0.3
			c2.1,0,5-0.1,8.7-0.3c3.7-0.2,6.6-0.4,8.7-0.8v-263c-13.1-3.5-27.6-6.6-43.7-9.2c-16.1-2.7-32.5-4-49.5-4
			c-16.6,0-32.2,1.6-46.8,4.8c-14.6,3.2-27.3,9.3-38.1,18.2c-10.8,9-19.3,21.4-25.7,37.3c-6.4,15.9-9.5,36.5-9.5,61.9V467.6"/>
		<path id="path76" class="st0" d="M2578.3,231.6c1.8-3.5,3.4-8.3,5-14.3c1.6-6,2.7-10.9,3.4-14.8c-8.8-3.2-18.9-5.8-30.1-7.9
			c-11.3-2.1-23.8-3.2-37.6-3.2c-44.1,0-77.6,12.1-100.5,36.2c-22.9,24.2-34.4,59.2-34.4,105c0,20.1,2.8,38.7,8.5,55.8
			c5.6,17.1,13.9,32,24.9,44.7c10.9,12.7,24.6,22.7,41,29.9c16.4,7.2,35.4,10.9,56.9,10.9c13.4,0,26.2-1,38.4-2.9
			c12.2-1.9,21.8-4.2,28.8-6.6c0-4.6-0.6-9.9-1.8-15.9c-1.2-6-2.6-10.8-4-14.3c-7.1,2.5-16,4.6-26.7,6.3
			c-10.8,1.8-22.3,2.6-34.7,2.6c-15.9,0-29.7-2.7-41.6-8.2c-11.8-5.5-21.7-13.2-29.6-23c-7.9-9.9-13.9-21.5-17.7-34.9
			c-3.9-13.4-5.8-28.2-5.8-44.4c0-38.1,9.1-66.1,27.2-83.9c18.2-17.8,42.8-26.7,73.8-26.7c10.6,0,20.7,0.9,30.4,2.6
			C2561.8,226.5,2570.5,228.8,2578.3,231.6"/>
		<path id="path78" class="st0" d="M2669.3,438h-46c-0.4,1.8-0.6,4-0.8,6.9c-0.2,2.8-0.3,5.6-0.3,8.5c0,2.8,0.1,5.5,0.3,7.9
			c0.2,2.5,0.5,4.6,0.8,6.4h46v50.8l32.8,32.3h2.1v-83.1h73c0.4-1.8,0.6-3.9,0.8-6.4c0.2-2.5,0.3-5.1,0.3-7.9c0-2.8-0.1-5.6-0.3-8.5
			c-0.2-2.8-0.4-5.1-0.8-6.9h-73V262.3c0-8.8,1.1-15.8,3.4-20.9c2.3-5.1,5.3-9.1,9-11.9c3.7-2.8,7.9-4.7,12.7-5.6
			c4.8-0.9,9.6-1.3,14.6-1.3c12.3,0,23.1,1.6,32.3,4.8c2.5-9.2,4.2-19.1,5.3-29.6c-12.7-3.9-27.5-5.8-44.5-5.8
			c-20.1,0-36.4,5.4-48.9,16.1c-12.5,10.8-18.8,28.3-18.8,52.6V438"/>
		<path id="path80" class="st0" d="M2919,222.1c28.2,0,49.3,9.9,63.2,29.6c13.9,19.8,20.9,46.7,20.9,81c0,34.2-7,61.2-20.9,81
			c-13.9,19.8-35,29.6-63.2,29.6c-28.2,0-49.3-9.9-63.2-29.6c-13.9-19.8-20.9-46.8-20.9-81c0-34.2,7-61.2,20.9-81
			C2869.7,231.9,2890.8,222.1,2919,222.1z M2919,191.4c-20.1,0-37.8,3.6-52.9,10.8c-15.2,7.2-27.8,17.2-37.8,29.9
			c-10.1,12.7-17.6,27.7-22.5,45c-4.9,17.3-7.4,35.8-7.4,55.6c0,19.8,2.5,38.3,7.4,55.6c4.9,17.3,12.4,32.3,22.5,45
			s22.7,22.7,37.8,29.9c15.2,7.2,32.8,10.9,52.9,10.9c20.1,0,37.6-3.6,52.6-10.9c15-7.2,27.5-17.2,37.6-29.9
			c10-12.7,17.6-27.7,22.8-45c5.1-17.3,7.7-35.8,7.7-55.6c0-19.8-2.6-38.3-7.7-55.6c-5.1-17.3-12.7-32.3-22.8-45
			c-10.1-12.7-22.6-22.7-37.6-29.9C2956.7,195,2939.1,191.4,2919,191.4"/>
		<path id="path82" class="st0" d="M3094.7,467.6c2.8,0.3,5.6,0.6,8.2,0.8c2.7,0.2,5.2,0.3,7.7,0.3c2.8,0,5.5-0.1,7.9-0.3
			c2.5-0.2,5.1-0.4,7.9-0.8c0.7-6.4,1.2-13.9,1.6-22.5c0.4-8.6,0.5-16.5,0.5-23.5c7.1,13,16.9,24.1,29.6,33.1
			c12.7,9,29.4,13.5,50.2,13.5c1.8,0,3.6,0,5.6,0c1.9,0,4.2-0.2,6.6-0.5c1.1-6,1.6-11.6,1.6-16.9c0-5.7-0.5-11.1-1.6-16.4
			c-2.8,0.3-5,0.5-6.6,0.5c-1.6,0-3.3,0-5,0c-24,0-43.2-7.6-57.7-22.8c-14.5-15.2-21.7-40.4-21.7-75.7V197.7c-2.1-0.3-5-0.6-8.7-0.8
			c-3.7-0.2-6.6-0.3-8.7-0.3c-1.8,0-4.6,0.1-8.5,0.3c-3.9,0.2-6.9,0.5-9,0.8V467.6"/>
		<path id="path84" class="st0" d="M406.3,34.8c3.8,0,7,0.7,9.8,2.2c2.8,1.5,5,3.6,6.9,6.4c1.8,2.8,3.2,6.2,4.1,10.1
			c0.9,3.9,1.4,8.4,1.4,13.4c0,4.9-0.5,9.4-1.4,13.3c-0.9,4-2.3,7.3-4.1,10.1c-1.8,2.8-4.1,4.9-6.9,6.4c-2.8,1.5-6,2.2-9.8,2.2
			c-3.8,0-7.1-0.7-9.8-2.2c-2.8-1.5-5-3.6-6.9-6.4c-1.8-2.8-3.2-6.1-4.1-10.1c-0.9-4-1.4-8.4-1.4-13.3c0-5,0.5-9.5,1.4-13.4
			c0.9-3.9,2.3-7.3,4.1-10.1c1.8-2.8,4.1-4.9,6.9-6.4C399.3,35.5,402.6,34.8,406.3,34.8z M406.3,24.8c-5.9,0-11,1-15.3,3.1
			c-4.3,2.1-7.9,5-10.7,8.7c-2.8,3.8-5,8.2-6.4,13.3c-1.4,5.1-2.1,10.8-2.1,16.9c0,6.1,0.7,11.8,2.1,16.9c1.4,5.2,3.5,9.6,6.4,13.3
			c2.8,3.7,6.4,6.7,10.7,8.8c4.3,2.1,9.4,3.2,15.3,3.2c5.9,0,11-1.1,15.3-3.2c4.3-2.1,7.9-5.1,10.7-8.8c2.8-3.8,4.9-8.2,6.3-13.3
			c1.4-5.1,2-10.8,2-16.9c0-6.1-0.7-11.8-2-16.9c-1.4-5.1-3.5-9.6-6.3-13.3c-2.8-3.7-6.4-6.6-10.7-8.7
			C417.3,25.9,412.2,24.8,406.3,24.8"/>
		<path id="path86" class="st0" d="M477.7,65.8c1.2-0.2,2.3-0.3,3.2-0.3c0.9-0.1,2.2-0.1,4-0.1c2.3,0,4.7,0.2,7,0.7
			c2.3,0.5,4.4,1.4,6.2,2.7c1.8,1.3,3.3,3,4.4,5.3c1.1,2.2,1.6,5.1,1.6,8.7c0,3.1-0.5,5.7-1.4,7.8c-0.9,2.1-2.2,3.8-3.9,5.1
			c-1.7,1.3-3.7,2.2-6,2.7c-2.3,0.5-4.9,0.8-7.6,0.8c-2.8,0-5.3-0.1-7.4-0.3V65.8z M466.1,107.9c1.1,0.2,2.5,0.3,4,0.5
			c1.5,0.1,3.2,0.3,4.9,0.4c1.7,0.1,3.4,0.2,5.1,0.3c1.7,0.1,3.3,0.1,4.9,0.1c4.1,0,8.1-0.4,11.8-1.2c3.7-0.8,7-2.3,9.9-4.3
			c2.8-2,5.1-4.7,6.7-8.1c1.7-3.4,2.5-7.6,2.5-12.6c0-5.3-0.9-9.7-2.7-13.2c-1.8-3.5-4.1-6.3-7-8.4c-2.9-2.1-6.2-3.6-9.9-4.5
			c-3.7-0.9-7.5-1.3-11.3-1.3c-1.4,0-2.7,0-3.8,0c-1.1,0-2.3,0.1-3.6,0.3V26.2c-1.8-0.2-3.7-0.3-5.8-0.3c-0.9,0-1.9,0-2.9,0.1
			c-1,0-2,0.1-2.9,0.3V107.9"/>
		<path id="path88" class="st0" d="M538.8,107.8h44.8c0.2-1.5,0.3-3.2,0.3-5c0-0.8,0-1.7-0.1-2.6c0-0.9-0.1-1.7-0.3-2.5h-33.2V74.3
			h26.5c0.2-0.8,0.3-1.6,0.3-2.4c0.1-0.9,0.1-1.7,0.1-2.6c0-0.8,0-1.7-0.1-2.6c-0.1-0.9-0.2-1.7-0.3-2.5h-26.5V36.3h34.1
			c0.2-1.5,0.3-3.2,0.3-5c0-0.8,0-1.7-0.1-2.6c0-0.9-0.1-1.7-0.3-2.5h-45.7L538.8,107.8"/>
		<path id="path90" class="st0" d="M608.1,107.8c0.8,0.1,1.7,0.3,2.7,0.3c0.9,0.1,1.8,0.1,2.7,0.1c0.8,0,1.7,0,2.7-0.1
			c0.9-0.1,1.8-0.2,2.7-0.3l35.5-61.3v61.3c0.9,0.1,1.8,0.3,2.8,0.3c1,0.1,2,0.1,2.9,0.1c0.8,0,1.7,0,2.6-0.1
			c0.9-0.1,1.8-0.2,2.6-0.3V26.2c-0.8-0.1-1.7-0.3-2.7-0.3c-0.9-0.1-1.8-0.1-2.7-0.1c-0.8,0-1.7,0-2.7,0.1c-0.9,0.1-1.8,0.2-2.7,0.3
			L619,87.1V26.2c-0.8-0.1-1.7-0.3-2.7-0.3c-0.9-0.1-1.9-0.1-2.8-0.1c-1,0-1.9,0-2.9,0.1c-0.9,0.1-1.8,0.2-2.5,0.3L608.1,107.8"/>
		<path id="path92" class="st0" d="M727.1,38.6c2.5-0.9,5.1-1.7,7.8-2.4c2.7-0.7,6.1-1,10-1c6.2,0,10.8,1.3,13.9,3.8
			c3.1,2.5,4.6,6,4.6,10.3c0,2.1-0.3,3.9-1,5.4c-0.6,1.5-1.6,2.8-2.9,3.9c-1.3,1.1-2.9,2.1-4.8,3c-1.9,0.9-4.2,1.9-6.8,2.9l-6.5,2.6
			c-2.2,0.9-4.2,1.9-6,3c-1.8,1.1-3.4,2.4-4.7,4c-1.3,1.6-2.4,3.4-3.1,5.5c-0.8,2.1-1.1,4.6-1.1,7.4c0,6.9,2.3,12.3,7,16.2
			c4.7,3.9,11.3,5.8,19.7,5.8c3.6,0,7.1-0.3,10.3-0.9c3.3-0.6,6.1-1.4,8.6-2.3c-0.4-3.2-1.2-6.3-2.5-9.4c-2,0.8-4.4,1.4-7.1,2
			c-2.7,0.6-5.7,0.9-9.1,0.9c-4.8,0-8.4-1-11-2.9c-2.6-1.9-3.9-4.8-3.9-8.7c0-1.6,0.3-3,1-4.3c0.6-1.2,1.5-2.3,2.6-3.3
			c1.1-0.9,2.3-1.8,3.7-2.5c1.4-0.8,2.9-1.4,4.5-2.1l6.4-2.5c3-1.2,5.7-2.5,8.1-3.8c2.3-1.3,4.3-2.9,6-4.7c1.7-1.8,2.9-3.9,3.8-6.3
			c0.9-2.4,1.3-5.3,1.3-8.5c0-7.8-2.7-13.9-8.1-18.4c-5.4-4.5-12.9-6.7-22.6-6.7c-2.3,0-4.5,0.1-6.4,0.2c-1.9,0.2-3.6,0.4-5.3,0.7
			c-1.6,0.3-3.2,0.7-4.7,1.1c-1.5,0.5-3.1,0.9-4.6,1.5c0.2,1.7,0.5,3.4,1,5.1C725.9,35.2,726.5,36.9,727.1,38.6"/>
		<path id="path94" class="st0" d="M830.9,34.8c3.8,0,7,0.7,9.8,2.2c2.8,1.5,5,3.6,6.9,6.4c1.8,2.8,3.2,6.2,4.1,10.1
			c0.9,3.9,1.4,8.4,1.4,13.4c0,4.9-0.5,9.4-1.4,13.3c-0.9,4-2.3,7.3-4.1,10.1c-1.8,2.8-4.1,4.9-6.9,6.4c-2.8,1.5-6,2.2-9.8,2.2
			c-3.8,0-7-0.7-9.8-2.2c-2.8-1.5-5-3.6-6.9-6.4c-1.8-2.8-3.2-6.1-4.1-10.1c-0.9-4-1.4-8.4-1.4-13.3c0-5,0.5-9.5,1.4-13.4
			c0.9-3.9,2.3-7.3,4.1-10.1c1.8-2.8,4.1-4.9,6.9-6.4C823.8,35.5,827.1,34.8,830.9,34.8z M830.9,24.8c-5.9,0-11,1-15.3,3.1
			c-4.3,2.1-7.9,5-10.7,8.7c-2.8,3.8-4.9,8.2-6.4,13.3c-1.4,5.1-2.1,10.8-2.1,16.9c0,6.1,0.7,11.8,2.1,16.9
			c1.4,5.2,3.5,9.6,6.4,13.3c2.8,3.7,6.4,6.7,10.7,8.8c4.3,2.1,9.4,3.2,15.3,3.2c5.9,0,11-1.1,15.3-3.2c4.3-2.1,7.9-5.1,10.7-8.8
			c2.8-3.8,4.9-8.2,6.3-13.3c1.4-5.1,2-10.8,2-16.9c0-6.1-0.7-11.8-2-16.9c-1.4-5.1-3.5-9.6-6.3-13.3c-2.8-3.7-6.4-6.6-10.7-8.7
			C841.9,25.9,836.8,24.8,830.9,24.8"/>
		<path id="path96" class="st0" d="M889.8,107.8c1.8,0.2,3.8,0.3,5.9,0.3c2,0,3.9-0.1,5.7-0.3V61.5c0-4.7,0.3-8.7,0.9-12
			c0.6-3.3,1.6-6,3-8.1c1.4-2.1,3.1-3.6,5.4-4.6c2.2-1,5-1.5,8.2-1.5c3.2,0,6,0.5,8.2,1.5c2.2,1,4,2.5,5.3,4.6
			c1.4,2.1,2.3,4.8,2.9,8.1c0.6,3.3,0.9,7.3,0.9,12v46.3c1.9,0.2,3.8,0.3,5.8,0.3c2.1,0,4.1-0.1,5.9-0.3V59.4
			c0-5.4-0.5-10.3-1.5-14.6c-1-4.3-2.7-7.9-5-10.9c-2.3-3-5.3-5.2-9-6.8c-3.7-1.6-8.2-2.3-13.5-2.3c-5.3,0-9.8,0.8-13.5,2.3
			c-3.7,1.6-6.7,3.8-9,6.8c-2.3,2.9-4,6.6-5,10.9c-1,4.3-1.5,9.2-1.5,14.6L889.8,107.8"/>
		<path id="path98" class="st0" d="M975.8,107.9c1.7,0.2,3.2,0.3,4.5,0.5c1.4,0.1,2.7,0.3,4,0.4c1.3,0.1,2.7,0.2,4.1,0.3
			c1.4,0.1,3,0.1,4.8,0.1c3.9,0,7.7-0.4,11.5-1.1c3.8-0.8,7.2-2.1,10.1-4c3-1.9,5.3-4.4,7.2-7.7c1.8-3.2,2.8-7.3,2.8-12.2
			c0-2.9-0.5-5.6-1.5-8.1c-1-2.4-2.2-4.6-3.8-6.5c-1.5-1.9-3.2-3.5-5.2-4.9c-1.9-1.4-3.8-2.6-5.6-3.5l-1.3-0.7l23.7-34.4
			c-2-0.2-4.3-0.3-6.9-0.3c-2,0-4.1,0.1-6.1,0.3L992,64v0.4l0.9,0.2c2,0.5,4.2,1.2,6.5,2.2c2.3,0.9,4.4,2.1,6.3,3.6
			c1.9,1.5,3.5,3.3,4.8,5.3c1.3,2.1,1.9,4.6,1.9,7.6c0,5.4-1.6,9.5-4.8,12.1c-3.2,2.6-7.5,4-13,4c-1.3,0-2.5,0-3.6-0.1
			c-1.1-0.1-2.3-0.2-3.7-0.3V26.2c-0.8-0.1-1.8-0.1-2.8-0.2c-1-0.1-2-0.1-2.9-0.1s-1.9,0-2.9,0.1c-1.1,0-2,0.1-2.9,0.3L975.8,107.9"
			/>
		<path id="path100" class="st0" d="M1102.1,38.1c1.7-3.2,2.7-6.4,3.2-9.4c-3.2-1.3-6.4-2.3-9.8-2.9c-3.3-0.6-6.9-0.9-10.8-0.9
			c-5.9,0-11.2,1-15.9,2.9c-4.7,1.9-8.7,4.7-12,8.3c-3.2,3.6-5.8,8-7.5,13.1c-1.7,5.2-2.6,10.9-2.6,17.4c0,6.5,0.9,12.4,2.6,17.6
			c1.7,5.3,4.2,9.7,7.5,13.4c3.2,3.7,7.2,6.6,11.9,8.6c4.7,2,9.9,3,15.8,3c4.3,0,8-0.3,11.1-0.9c3.1-0.6,5.9-1.3,8.3-2.1
			c-0.2-1.8-0.5-3.4-1-4.8c-0.5-1.5-1.1-3-1.8-4.7c-1.1,0.4-2.2,0.7-3.3,1c-1.1,0.3-2.2,0.6-3.4,0.8c-1.2,0.2-2.5,0.4-4,0.5
			c-1.5,0.1-3.2,0.2-5.1,0.2c-8.2,0-14.7-2.8-19.2-8.4c-4.6-5.6-6.9-13.7-6.9-24.2c0-5.4,0.6-10,1.9-14c1.3-3.9,3.1-7.2,5.4-9.7
			c2.3-2.6,5.2-4.5,8.4-5.8c3.3-1.3,7-1.9,11.1-1.9c3.2,0,6.1,0.3,8.6,0.8C1097.5,36.4,1099.9,37.1,1102.1,38.1"/>
		<path id="path102" class="st0" d="M1128.7,107.8h44.8c0.2-1.5,0.3-3.2,0.3-5c0-0.8,0-1.7-0.1-2.6c0-0.9-0.1-1.7-0.3-2.5h-33.2
			V74.3h26.5c0.2-0.8,0.3-1.6,0.3-2.4c0.1-0.9,0.1-1.7,0.1-2.6c0-0.8,0-1.7-0.1-2.6c-0.1-0.9-0.2-1.7-0.3-2.5h-26.5V36.3h34.1
			c0.2-1.5,0.3-3.2,0.3-5c0-0.8,0-1.7-0.1-2.6c0-0.9-0.1-1.7-0.3-2.5h-45.7V107.8"/>
		<path id="path104" class="st0" d="M1231.3,38.6c2.5-0.9,5.1-1.7,7.8-2.4c2.7-0.7,6.1-1,10-1c6.2,0,10.8,1.3,13.9,3.8
			c3.1,2.5,4.6,6,4.6,10.3c0,2.1-0.3,3.9-1,5.4c-0.6,1.5-1.6,2.8-2.9,3.9c-1.3,1.1-2.9,2.1-4.8,3c-1.9,0.9-4.2,1.9-6.8,2.9l-6.5,2.6
			c-2.2,0.9-4.2,1.9-6,3c-1.8,1.1-3.4,2.4-4.7,4c-1.3,1.6-2.4,3.4-3.1,5.5c-0.8,2.1-1.1,4.6-1.1,7.4c0,6.9,2.3,12.3,7,16.2
			c4.7,3.9,11.3,5.8,19.7,5.8c3.6,0,7.1-0.3,10.3-0.9c3.2-0.6,6.1-1.4,8.6-2.3c-0.4-3.2-1.2-6.3-2.5-9.4c-2,0.8-4.4,1.4-7.1,2
			c-2.7,0.6-5.7,0.9-9.1,0.9c-4.8,0-8.4-1-11-2.9c-2.6-1.9-3.9-4.8-3.9-8.7c0-1.6,0.3-3,1-4.3c0.7-1.2,1.5-2.3,2.6-3.3
			c1.1-0.9,2.3-1.8,3.7-2.5c1.4-0.8,2.9-1.4,4.5-2.1l6.4-2.5c3-1.2,5.7-2.5,8.1-3.8c2.3-1.3,4.3-2.9,6-4.7c1.7-1.8,2.9-3.9,3.8-6.3
			c0.9-2.4,1.3-5.3,1.3-8.5c0-7.8-2.7-13.9-8.1-18.4c-5.4-4.5-12.9-6.7-22.6-6.7c-2.3,0-4.5,0.1-6.3,0.2c-1.9,0.2-3.7,0.4-5.3,0.7
			c-1.6,0.3-3.2,0.7-4.7,1.1c-1.5,0.5-3.1,0.9-4.7,1.5c0.2,1.7,0.5,3.4,1,5.1C1230.2,35.2,1230.7,36.9,1231.3,38.6"/>
		<path id="path106" class="st0" d="M1335.1,34.8c3.8,0,7.1,0.7,9.8,2.2c2.8,1.5,5.1,3.6,6.8,6.4c1.8,2.8,3.2,6.2,4.1,10.1
			c0.9,3.9,1.4,8.4,1.4,13.4c0,4.9-0.4,9.4-1.4,13.3c-0.9,4-2.3,7.3-4.1,10.1c-1.8,2.8-4.1,4.9-6.8,6.4c-2.8,1.5-6,2.2-9.8,2.2
			s-7.1-0.7-9.8-2.2c-2.8-1.5-5.1-3.6-6.9-6.4c-1.8-2.8-3.2-6.1-4.1-10.1c-0.9-4-1.4-8.4-1.4-13.3c0-5,0.4-9.5,1.4-13.4
			c0.9-3.9,2.3-7.3,4.1-10.1c1.8-2.8,4.1-4.9,6.9-6.4C1328.1,35.5,1331.3,34.8,1335.1,34.8z M1335.1,24.8c-5.9,0-11,1-15.3,3.1
			c-4.3,2.1-7.9,5-10.7,8.7c-2.8,3.8-4.9,8.2-6.3,13.3c-1.4,5.1-2.1,10.8-2.1,16.9c0,6.1,0.7,11.8,2.1,16.9
			c1.4,5.2,3.5,9.6,6.3,13.3c2.8,3.7,6.4,6.7,10.7,8.8c4.3,2.1,9.4,3.2,15.3,3.2s11-1.1,15.3-3.2c4.3-2.1,7.9-5.1,10.7-8.8
			c2.8-3.8,4.9-8.2,6.3-13.3c1.4-5.1,2.1-10.8,2.1-16.9c0-6.1-0.7-11.8-2.1-16.9c-1.4-5.1-3.5-9.6-6.3-13.3
			c-2.8-3.7-6.4-6.6-10.7-8.7C1346.1,25.9,1341,24.8,1335.1,24.8"/>
		<path id="path108" class="st0" d="M1394.9,107.8h42.7c0.2-0.8,0.3-1.6,0.3-2.4c0.1-0.9,0.1-1.7,0.1-2.6s-0.1-1.7-0.1-2.6
			c-0.1-0.9-0.2-1.7-0.3-2.5h-31.1V73.7h26c0.2-0.8,0.3-1.7,0.3-2.6c0.1-0.9,0.1-1.7,0.1-2.6c0-0.8,0-1.7-0.1-2.6
			c-0.1-0.9-0.2-1.7-0.3-2.5h-26V26.2c-0.9-0.1-1.8-0.3-2.8-0.3c-0.9-0.1-1.9-0.1-3-0.1c-1,0-2,0-3,0.1c-1,0.1-1.9,0.2-2.8,0.3
			V107.8"/>
		<path id="path110" class="st0" d="M1474.6,97.6h-21.2c-0.2,0.8-0.3,1.6-0.3,2.5c-0.1,0.9-0.1,1.8-0.1,2.6c0,0.8,0,1.7,0.1,2.6
			c0.1,0.9,0.2,1.7,0.3,2.4h54c0.1-0.8,0.3-1.6,0.3-2.4c0.1-0.8,0.1-1.7,0.1-2.5c0-0.8,0-1.7-0.1-2.7c-0.1-0.9-0.2-1.8-0.3-2.6
			h-21.2V26.2c-1.8-0.2-3.6-0.3-5.7-0.3c-2.1,0-4.1,0.1-5.9,0.3V97.6"/>
		<path id="path112" class="st0" d="M1521.8,107.8c0.8,0.1,1.9,0.3,3.1,0.3s2.4,0.1,3.4,0.1c1.1,0,2.1,0,3.2-0.1
			c1.1-0.1,2.1-0.2,3-0.3l13.9-67.9l16.8,67.9c0.9,0.1,1.9,0.3,3,0.3c1.1,0.1,2.1,0.1,3.1,0.1c0.9,0,1.9,0,3.1-0.1
			c1.1-0.1,2.1-0.2,2.9-0.3l16.9-68.6l14.2,68.6c0.8,0.1,1.7,0.3,2.7,0.3c0.9,0.1,1.9,0.1,2.8,0.1c1.1,0,2.1,0,3.2-0.1
			c1.1-0.1,2.1-0.2,2.9-0.3l-19.6-81.6c-0.9-0.1-2-0.3-3.2-0.3c-1.2-0.1-2.3-0.1-3.3-0.1c-1.1,0-2.2,0-3.5,0.1
			c-1.3,0.1-2.4,0.2-3.5,0.3l-16.1,63.9l-16.3-63.9c-1.1-0.1-2.2-0.3-3.5-0.3s-2.4-0.1-3.5-0.1c-0.9,0-1.9,0-3.1,0.1
			s-2.2,0.2-3.1,0.3L1521.8,107.8"/>
		<path id="path114" class="st0" d="M1651.4,55.1h24.8l-12.5,41.6L1651.4,55.1z M1679.3,45h-31l-5.6-18.8c-1-0.1-2-0.3-2.9-0.3
			c-1-0.1-2-0.1-2.9-0.1c-1.1,0-2.1,0-3.1,0.1s-1.9,0.2-2.8,0.3l26.5,81.6c1,0.1,2.1,0.3,3.2,0.3c1.1,0.1,2.3,0.1,3.5,0.1
			c1.1,0,2.2,0,3.3-0.1c1.1-0.1,2.2-0.2,3.3-0.3l26.4-81.6c-0.9-0.1-1.9-0.3-3.1-0.3c-1.1-0.1-2.2-0.1-3.3-0.1c-1,0-2,0-3,0.1
			s-2,0.2-2.9,0.3L1679.3,45"/>
		<path id="path116" class="st0" d="M1717.9,107.9c1.7,0.2,3.2,0.3,4.5,0.5c1.3,0.1,2.7,0.3,4,0.4c1.3,0.1,2.7,0.2,4.2,0.3
			c1.4,0.1,3,0.1,4.8,0.1c3.8,0,7.7-0.4,11.4-1.1c3.8-0.8,7.2-2.1,10.1-4c2.9-1.9,5.3-4.4,7.2-7.7c1.8-3.2,2.8-7.3,2.8-12.2
			c0-2.9-0.5-5.6-1.5-8.1c-1-2.4-2.2-4.6-3.7-6.5c-1.5-1.9-3.2-3.5-5.2-4.9c-1.9-1.4-3.8-2.6-5.6-3.5l-1.3-0.7l23.7-34.4
			c-2.1-0.2-4.4-0.3-6.9-0.3c-2,0-4.1,0.1-6.1,0.3L1734.1,64v0.4l0.9,0.2c2.1,0.5,4.2,1.2,6.5,2.2c2.3,0.9,4.4,2.1,6.3,3.6
			c1.9,1.5,3.5,3.3,4.8,5.3c1.3,2.1,1.9,4.6,1.9,7.6c0,5.4-1.6,9.5-4.8,12.1c-3.2,2.6-7.5,4-13,4c-1.3,0-2.5,0-3.6-0.1
			c-1.1-0.1-2.3-0.2-3.7-0.3V26.2c-0.8-0.1-1.8-0.1-2.8-0.2c-1-0.1-2-0.1-2.9-0.1c-0.9,0-1.9,0-2.9,0.1c-1.1,0-2.1,0.1-2.9,0.3
			L1717.9,107.9"/>
		<path id="path118" class="st0" d="M1793.9,107.8h44.8c0.2-1.5,0.3-3.2,0.3-5c0-0.8,0-1.7-0.1-2.6c0-0.9-0.1-1.7-0.3-2.5h-33.2
			V74.3h26.6c0.1-0.8,0.2-1.6,0.3-2.4c0.1-0.9,0.1-1.7,0.1-2.6c0-0.8,0-1.7-0.1-2.6c-0.1-0.9-0.2-1.7-0.3-2.5h-26.6V36.3h34.2
			c0.2-1.5,0.3-3.2,0.3-5c0-0.8,0-1.7-0.1-2.6c0-0.9-0.1-1.7-0.3-2.5h-45.7V107.8"/>
		<path id="path120" class="st0" d="M1898.6,107.8h42.6c0.2-0.8,0.3-1.6,0.3-2.4c0.1-0.9,0.1-1.7,0.1-2.6s0-1.7-0.1-2.6
			c-0.1-0.9-0.2-1.7-0.3-2.5h-31.1V73.7h26c0.2-0.8,0.3-1.7,0.3-2.6c0.1-0.9,0.1-1.7,0.1-2.6c0-0.8,0-1.7-0.1-2.6
			c-0.1-0.9-0.2-1.7-0.3-2.5h-26V26.2c-0.9-0.1-1.8-0.3-2.8-0.3c-0.9-0.1-1.9-0.1-3-0.1c-1,0-2,0-3,0.1c-1,0.1-1.9,0.2-2.8,0.3
			L1898.6,107.8"/>
		<path id="path122" class="st0" d="M1995.6,34.8c3.8,0,7.1,0.7,9.8,2.2c2.8,1.5,5,3.6,6.9,6.4c1.8,2.8,3.2,6.2,4.1,10.1
			c0.9,3.9,1.4,8.4,1.4,13.4c0,4.9-0.5,9.4-1.4,13.3c-0.9,4-2.3,7.3-4.1,10.1c-1.8,2.8-4.1,4.9-6.9,6.4c-2.8,1.5-6,2.2-9.8,2.2
			c-3.8,0-7-0.7-9.8-2.2c-2.8-1.5-5.1-3.6-6.9-6.4c-1.8-2.8-3.2-6.1-4.1-10.1c-0.9-4-1.4-8.4-1.4-13.3c0-5,0.5-9.5,1.4-13.4
			c0.9-3.9,2.3-7.3,4.1-10.1c1.8-2.8,4.1-4.9,6.9-6.4C1988.6,35.5,1991.9,34.8,1995.6,34.8z M1995.6,24.8c-5.9,0-11,1-15.3,3.1
			c-4.3,2.1-7.9,5-10.7,8.7c-2.8,3.8-4.9,8.2-6.3,13.3c-1.4,5.1-2.1,10.8-2.1,16.9c0,6.1,0.7,11.8,2.1,16.9
			c1.4,5.2,3.5,9.6,6.3,13.3c2.8,3.7,6.4,6.7,10.7,8.8c4.3,2.1,9.4,3.2,15.3,3.2c5.9,0,11-1.1,15.3-3.2c4.3-2.1,7.9-5.1,10.7-8.8
			c2.8-3.8,4.9-8.2,6.3-13.3c1.4-5.1,2-10.8,2-16.9c0-6.1-0.7-11.8-2-16.9c-1.4-5.1-3.5-9.6-6.3-13.3c-2.8-3.7-6.4-6.6-10.7-8.7
			C2006.6,25.9,2001.5,24.8,1995.6,24.8"/>
		<path id="path124" class="st0" d="M2055.6,107.9c1.7,0.2,3.2,0.3,4.5,0.5c1.4,0.1,2.7,0.3,4,0.4c1.3,0.1,2.7,0.2,4.1,0.3
			c1.4,0.1,3,0.1,4.8,0.1c3.9,0,7.7-0.4,11.5-1.1c3.8-0.8,7.1-2.1,10.1-4c2.9-1.9,5.4-4.4,7.2-7.7c1.9-3.2,2.8-7.3,2.8-12.2
			c0-2.9-0.5-5.6-1.5-8.1c-1-2.4-2.2-4.6-3.8-6.5c-1.5-1.9-3.2-3.5-5.2-4.9c-1.9-1.4-3.8-2.6-5.6-3.5l-1.4-0.7l23.7-34.4
			c-2.1-0.2-4.4-0.3-6.9-0.3c-2,0-4.1,0.1-6.1,0.3L2071.8,64v0.4l0.9,0.2c2,0.5,4.2,1.2,6.5,2.2c2.3,0.9,4.4,2.1,6.3,3.6
			c1.9,1.5,3.6,3.3,4.8,5.3c1.3,2.1,1.9,4.6,1.9,7.6c0,5.4-1.6,9.5-4.8,12.1c-3.2,2.6-7.5,4-13,4c-1.3,0-2.5,0-3.6-0.1
			c-1.1-0.1-2.3-0.2-3.7-0.3V26.2c-0.8-0.1-1.8-0.1-2.8-0.2c-1-0.1-2-0.1-2.9-0.1c-0.9,0-1.9,0-2.9,0.1c-1.1,0-2.1,0.1-2.9,0.3
			V107.9"/>
		<path id="path126" class="st0" d="M2178.6,35.2c1.1-0.1,2.4-0.3,4-0.3c1.6-0.1,3.2-0.1,4.8-0.1c2.7,0,5.3,0.2,7.6,0.7
			c2.4,0.4,4.5,1.2,6.3,2.3c1.8,1.1,3.3,2.6,4.3,4.4c1.1,1.9,1.6,4.2,1.6,7.1c0,2.8-0.5,5.2-1.5,7.1c-1,1.9-2.3,3.5-4,4.6
			c-1.7,1.2-3.7,2-6.1,2.5c-2.3,0.5-4.9,0.7-7.6,0.7h-9.5V35.2z M2186.8,73.7c5.1,0,9.1,1.1,11.8,3.3c2.7,2.2,4.1,5.6,4.1,10
			c0,4.3-1.4,7.5-4.4,9.6c-2.9,2.1-6.9,3.2-11.9,3.2c-1.5,0-3,0-4.4-0.1c-1.4-0.1-2.6-0.2-3.6-0.3V73.7H2186.8z M2167.1,107.8
			c1.9,0.4,4.6,0.7,8,0.9c3.4,0.2,6.8,0.3,10.3,0.3c4.3,0,8.2-0.4,11.8-1.1c3.6-0.7,6.6-2,9.1-3.7c2.5-1.7,4.5-3.9,5.9-6.6
			c1.4-2.7,2.1-6,2.1-9.8c0-2.3-0.4-4.5-1.1-6.5c-0.7-2-1.7-3.8-2.9-5.3c-1.2-1.6-2.6-2.8-4.2-3.9c-1.6-1-3.2-1.8-4.9-2.2
			c2.1-0.2,4.2-0.8,6.4-1.7c2.1-0.9,4.1-2.2,5.8-3.9c1.7-1.7,3.2-3.8,4.3-6.3c1.1-2.5,1.6-5.6,1.6-9.2c0-4.4-0.9-8.1-2.6-11.2
			s-4.1-5.5-7.1-7.4c-3-1.9-6.5-3.3-10.5-4.1c-4.1-0.8-8.4-1.2-13-1.2c-2.9,0-6,0.1-9.4,0.4c-3.4,0.3-6.6,0.6-9.6,1L2167.1,107.8"/>
		<path id="path128" class="st0" d="M2243,107.8c0.9,0.1,1.9,0.3,2.8,0.3c1,0.1,2,0.1,2.9,0.1c1,0,2,0,3-0.1c1-0.1,1.9-0.2,2.8-0.3
			V26.2c-0.9-0.1-1.9-0.3-2.8-0.3s-1.9-0.1-3-0.1c-1,0-2,0-3,0.1c-1,0.1-2,0.2-2.8,0.3V107.8"/>
		<path id="path130" class="st0" d="M2314.4,34.8c3.8,0,7.1,0.7,9.8,2.2c2.8,1.5,5.1,3.6,6.9,6.4c1.8,2.8,3.2,6.2,4.1,10.1
			c0.9,3.9,1.4,8.4,1.4,13.4c0,4.9-0.5,9.4-1.4,13.3c-0.9,4-2.3,7.3-4.1,10.1c-1.8,2.8-4.1,4.9-6.9,6.4c-2.8,1.5-6,2.2-9.8,2.2
			c-3.8,0-7-0.7-9.8-2.2c-2.8-1.5-5-3.6-6.9-6.4c-1.8-2.8-3.2-6.1-4.1-10.1c-0.9-4-1.4-8.4-1.4-13.3c0-5,0.5-9.5,1.4-13.4
			c0.9-3.9,2.3-7.3,4.1-10.1c1.8-2.8,4.1-4.9,6.9-6.4C2307.4,35.5,2310.7,34.8,2314.4,34.8z M2314.4,24.8c-5.9,0-11,1-15.3,3.1
			c-4.3,2.1-7.9,5-10.7,8.7c-2.8,3.8-4.9,8.2-6.3,13.3c-1.4,5.1-2.1,10.8-2.1,16.9c0,6.1,0.7,11.8,2.1,16.9
			c1.4,5.2,3.5,9.6,6.3,13.3c2.9,3.7,6.4,6.7,10.7,8.8c4.3,2.1,9.4,3.2,15.3,3.2c5.9,0,11-1.1,15.3-3.2c4.3-2.1,7.9-5.1,10.7-8.8
			c2.8-3.8,4.9-8.2,6.3-13.3c1.4-5.1,2-10.8,2-16.9c0-6.1-0.7-11.8-2-16.9c-1.4-5.1-3.4-9.6-6.3-13.3c-2.8-3.7-6.4-6.6-10.7-8.7
			C2325.4,25.9,2320.3,24.8,2314.4,24.8"/>
		<path id="path132" class="st0" d="M2374.2,107.8c0.9,0.1,1.9,0.3,2.9,0.3c1,0.1,1.9,0.1,2.9,0.1c1,0,2,0,2.9-0.1
			c1-0.1,1.9-0.2,2.8-0.3V26.2c-0.9-0.1-1.8-0.3-2.8-0.3c-0.9-0.1-1.9-0.1-3-0.1c-1,0-2,0-3,0.1c-1,0.1-2,0.2-2.8,0.3V107.8"/>
		<path id="path134" class="st0" d="M2414.2,107.8c0.8,0.1,1.7,0.3,2.7,0.3c0.9,0.1,1.8,0.1,2.7,0.1c0.8,0,1.7,0,2.6-0.1
			c1-0.1,1.9-0.2,2.7-0.3l35.5-61.3v61.3c0.9,0.1,1.8,0.3,2.8,0.3c1,0.1,2,0.1,3,0.1c0.8,0,1.7,0,2.6-0.1c0.9-0.1,1.8-0.2,2.6-0.3
			V26.2c-0.8-0.1-1.7-0.3-2.6-0.3c-0.9-0.1-1.9-0.1-2.7-0.1c-0.8,0-1.7,0-2.7,0.1c-0.9,0.1-1.8,0.2-2.7,0.3l-35.6,60.9V26.2
			c-0.8-0.1-1.7-0.3-2.7-0.3c-1-0.1-1.9-0.1-2.8-0.1c-1,0-2,0-2.9,0.1c-0.9,0.1-1.8,0.2-2.6,0.3L2414.2,107.8"/>
		<path id="path136" class="st0" d="M2499.9,107.8h42.6c0.1-0.8,0.3-1.6,0.3-2.4c0.1-0.9,0.1-1.7,0.1-2.6s0-1.7-0.1-2.6
			c-0.1-0.9-0.2-1.7-0.3-2.5h-31.1V73.7h26c0.1-0.8,0.3-1.7,0.3-2.6c0.1-0.9,0.1-1.7,0.1-2.6c0-0.8,0-1.7-0.1-2.6
			c-0.1-0.9-0.2-1.7-0.3-2.5h-26V26.2c-0.9-0.1-1.8-0.3-2.8-0.3c-0.9-0.1-1.9-0.1-3-0.1c-1,0-2,0-3,0.1s-1.9,0.2-2.8,0.3
			L2499.9,107.8"/>
		<path id="path138" class="st0" d="M2596.9,34.8c3.8,0,7.1,0.7,9.8,2.2c2.8,1.5,5,3.6,6.9,6.4c1.8,2.8,3.2,6.2,4.1,10.1
			c0.9,3.9,1.4,8.4,1.4,13.4c0,4.9-0.4,9.4-1.4,13.3c-0.9,4-2.3,7.3-4.1,10.1c-1.8,2.8-4.1,4.9-6.9,6.4c-2.8,1.5-6,2.2-9.8,2.2
			c-3.8,0-7-0.7-9.8-2.2c-2.8-1.5-5-3.6-6.9-6.4c-1.8-2.8-3.2-6.1-4.1-10.1c-0.9-4-1.4-8.4-1.4-13.3c0-5,0.4-9.5,1.4-13.4
			c0.9-3.9,2.3-7.3,4.1-10.1c1.8-2.8,4.1-4.9,6.9-6.4C2589.9,35.5,2593.2,34.8,2596.9,34.8z M2596.9,24.8c-5.9,0-11,1-15.3,3.1
			c-4.3,2.1-7.9,5-10.7,8.7c-2.8,3.8-4.9,8.2-6.3,13.3c-1.4,5.1-2.1,10.8-2.1,16.9c0,6.1,0.7,11.8,2.1,16.9
			c1.4,5.2,3.5,9.6,6.3,13.3c2.8,3.7,6.4,6.7,10.7,8.8c4.3,2.1,9.4,3.2,15.3,3.2c5.9,0,11-1.1,15.3-3.2c4.3-2.1,7.9-5.1,10.7-8.8
			c2.9-3.8,4.9-8.2,6.3-13.3c1.4-5.1,2-10.8,2-16.9c0-6.1-0.7-11.8-2-16.9c-1.4-5.1-3.4-9.6-6.3-13.3c-2.8-3.7-6.4-6.6-10.7-8.7
			C2607.9,25.9,2602.8,24.8,2596.9,24.8"/>
		<path id="path140" class="st0" d="M2656.9,107.9c1.7,0.2,3.2,0.3,4.5,0.5c1.4,0.1,2.7,0.3,4,0.4c1.3,0.1,2.7,0.2,4.1,0.3
			c1.4,0.1,3,0.1,4.8,0.1c3.9,0,7.7-0.4,11.5-1.1c3.8-0.8,7.1-2.1,10.1-4c2.9-1.9,5.4-4.4,7.2-7.7c1.9-3.2,2.8-7.3,2.8-12.2
			c0-2.9-0.5-5.6-1.5-8.1c-1-2.4-2.2-4.6-3.7-6.5c-1.5-1.9-3.2-3.5-5.2-4.9c-1.9-1.4-3.8-2.6-5.6-3.5l-1.4-0.7l23.7-34.4
			c-2.1-0.2-4.4-0.3-6.9-0.3c-2,0-4.1,0.1-6.1,0.3L2673.1,64v0.4l0.9,0.2c2,0.5,4.2,1.2,6.4,2.2c2.3,0.9,4.4,2.1,6.3,3.6
			c1.9,1.5,3.5,3.3,4.8,5.3c1.3,2.1,1.9,4.6,1.9,7.6c0,5.4-1.6,9.5-4.8,12.1c-3.2,2.6-7.5,4-13,4c-1.3,0-2.5,0-3.6-0.1
			c-1.1-0.1-2.3-0.2-3.7-0.3V26.2c-0.8-0.1-1.8-0.1-2.8-0.2c-1-0.1-2-0.1-2.9-0.1c-0.9,0-1.9,0-2.9,0.1c-1.1,0-2,0.1-3,0.3
			L2656.9,107.9"/>
		<path id="path142" class="st0" d="M2735.2,107.8c0.9,0.1,1.9,0.3,3.1,0.3c1.2,0.1,2.3,0.1,3.4,0.1c1.1,0,2.2,0,3.4-0.1
			c1.2-0.1,2.3-0.2,3.1-0.3l21.1-51l21.2,51c0.8,0.1,1.7,0.3,2.8,0.3c1.1,0.1,2.2,0.1,3.3,0.1c1,0,2.1,0,3.3-0.1
			c1.2-0.1,2.2-0.2,3.1-0.3l3.9-81.6c-0.9-0.1-1.8-0.3-2.8-0.3c-0.9-0.1-1.9-0.1-2.9-0.1c-1,0-2,0-2.9,0.1c-0.9,0.1-1.8,0.2-2.7,0.3
			l-2.6,63.4l-20-46.5c-1.5-0.2-3.1-0.3-4.7-0.3c-1.4,0-2.9,0.1-4.3,0.3l-19.3,46.8l-2.6-63.7c-0.8-0.1-1.7-0.3-2.6-0.3
			c-0.9-0.1-1.8-0.1-2.6-0.1c-1,0-1.9,0-2.8,0.1c-0.9,0.1-1.8,0.2-2.6,0.3L2735.2,107.8"/>
		<path id="path144" class="st0" d="M2846.2,55.1h24.8l-12.5,41.6L2846.2,55.1z M2874.1,45h-31l-5.6-18.8c-1-0.1-2-0.3-2.9-0.3
			c-1-0.1-2-0.1-2.9-0.1c-1.1,0-2.1,0-3.1,0.1s-1.9,0.2-2.8,0.3l26.5,81.6c1,0.1,2.1,0.3,3.2,0.3c1.1,0.1,2.3,0.1,3.5,0.1
			c1.1,0,2.1,0,3.3-0.1c1.1-0.1,2.2-0.2,3.3-0.3l26.4-81.6c-0.9-0.1-1.9-0.3-3.1-0.3c-1.1-0.1-2.2-0.1-3.3-0.1c-1,0-2,0-3,0.1
			c-1,0.1-2,0.2-2.9,0.3L2874.1,45"/>
		<path id="path146" class="st0" d="M2919.2,97.6H2898c-0.1,0.8-0.3,1.6-0.3,2.5c-0.1,0.9-0.1,1.8-0.1,2.6c0,0.8,0,1.7,0.1,2.6
			c0.1,0.9,0.2,1.7,0.3,2.4h54c0.1-0.8,0.3-1.6,0.3-2.4c0.1-0.8,0.1-1.7,0.1-2.5c0-0.8,0-1.7-0.1-2.7c-0.1-0.9-0.2-1.8-0.3-2.6
			h-21.2V26.2c-1.8-0.2-3.6-0.3-5.7-0.3c-2.1,0-4.1,0.1-5.9,0.3L2919.2,97.6"/>
		<path id="path148" class="st0" d="M2973.3,107.8c0.9,0.1,1.9,0.3,2.8,0.3c1,0.1,2,0.1,2.9,0.1c1,0,2,0,2.9-0.1
			c1-0.1,1.9-0.2,2.8-0.3V26.2c-0.9-0.1-1.8-0.3-2.8-0.3c-0.9-0.1-1.9-0.1-3-0.1c-1,0-2,0-3,0.1s-2,0.2-2.8,0.3V107.8"/>
		<path id="path150" class="st0" d="M3065.4,38.1c1.7-3.2,2.7-6.4,3.2-9.4c-3.2-1.3-6.4-2.3-9.8-2.9c-3.3-0.6-6.9-0.9-10.8-0.9
			c-5.9,0-11.2,1-15.9,2.9s-8.7,4.7-12,8.3c-3.2,3.6-5.8,8-7.5,13.1c-1.7,5.2-2.6,10.9-2.6,17.4c0,6.5,0.9,12.4,2.6,17.6
			c1.7,5.3,4.2,9.7,7.5,13.4c3.3,3.7,7.2,6.6,11.9,8.6c4.7,2,9.9,3,15.8,3c4.3,0,8-0.3,11.1-0.9c3.1-0.6,5.9-1.3,8.3-2.1
			c-0.2-1.8-0.5-3.4-1-4.8c-0.5-1.5-1.1-3-1.8-4.7c-1.1,0.4-2.2,0.7-3.3,1c-1.1,0.3-2.2,0.6-3.4,0.8c-1.2,0.2-2.6,0.4-4,0.5
			c-1.5,0.1-3.1,0.2-5,0.2c-8.2,0-14.6-2.8-19.2-8.4c-4.6-5.6-6.9-13.7-6.9-24.2c0-5.4,0.6-10,1.9-14c1.3-3.9,3.1-7.2,5.4-9.7
			c2.4-2.6,5.2-4.5,8.4-5.8c3.3-1.3,7-1.9,11.1-1.9c3.2,0,6,0.3,8.6,0.8C3060.8,36.4,3063.2,37.1,3065.4,38.1"/>
		<path id="path152" class="st0" d="M3089.9,38.6c2.5-0.9,5.1-1.7,7.8-2.4c2.7-0.7,6-1,10-1c6.2,0,10.8,1.3,13.9,3.8
			c3.1,2.5,4.6,6,4.6,10.3c0,2.1-0.3,3.9-1,5.4c-0.6,1.5-1.6,2.8-2.9,3.9c-1.3,1.1-2.9,2.1-4.8,3c-1.9,0.9-4.2,1.9-6.7,2.9l-6.5,2.6
			c-2.2,0.9-4.2,1.9-6,3c-1.8,1.1-3.4,2.4-4.7,4c-1.3,1.6-2.4,3.4-3.1,5.5c-0.8,2.1-1.1,4.6-1.1,7.4c0,6.9,2.3,12.3,7,16.2
			c4.7,3.9,11.3,5.8,19.7,5.8c3.6,0,7.1-0.3,10.3-0.9c3.2-0.6,6.1-1.4,8.6-2.3c-0.4-3.2-1.2-6.3-2.5-9.4c-2,0.8-4.4,1.4-7.1,2
			c-2.7,0.6-5.7,0.9-9.1,0.9c-4.8,0-8.4-1-11-2.9c-2.6-1.9-3.9-4.8-3.9-8.7c0-1.6,0.3-3,1-4.3c0.6-1.2,1.5-2.3,2.5-3.3
			c1.1-0.9,2.3-1.8,3.7-2.5c1.4-0.8,2.9-1.4,4.5-2.1l6.4-2.5c3-1.2,5.7-2.5,8-3.8c2.4-1.3,4.4-2.9,6-4.7c1.7-1.8,2.9-3.9,3.8-6.3
			c0.9-2.4,1.3-5.3,1.3-8.5c0-7.8-2.7-13.9-8-18.4c-5.4-4.5-12.9-6.7-22.6-6.7c-2.4,0-4.5,0.1-6.4,0.2c-1.9,0.2-3.6,0.4-5.3,0.7
			c-1.6,0.3-3.2,0.7-4.7,1.1c-1.5,0.5-3.1,0.9-4.7,1.5c0.2,1.7,0.5,3.4,1,5.1C3088.8,35.2,3089.3,36.9,3089.9,38.6"/>
		<path class="st1" d="M813.1,851.5c-6.9,0.2-13.6-3.6-16.8-10.3c-4.1-8.9-0.2-19.5,8.7-23.6c8.9-4.1,19.5-0.2,23.6,8.7
			c4.1,8.9,0.2,19.5-8.7,23.6C817.7,850.9,815.4,851.4,813.1,851.5"/>
		<path class="st1" d="M222.6,856.4c-1.5,0.1-3.1,0.1-4.6,0c-12.6-1.4-21.6-12.7-20.3-25.2c1.4-12.5,12.7-21.6,25.2-20.3
			c12.6,1.4,21.7,12.7,20.3,25.2C242,847.1,233.2,855.5,222.6,856.4"/>
		<path class="st1" d="M281.9,899.4c-1.7,0.2-3.4,0.1-5.2,0c-14.1-1.6-24.3-14.3-22.8-28.4c1.5-14.1,14.3-24.4,28.4-22.8
			c14.1,1.6,24.3,14.3,22.8,28.4C303.7,888.9,293.8,898.3,281.9,899.4"/>
		<path class="st1" d="M854,926.2c-1.8,0.2-3.6,0.2-5.4,0c-14.7-1.6-25.4-14.9-23.8-29.6c1.6-14.7,14.9-25.4,29.6-23.7
			c14.7,1.6,25.4,14.9,23.8,29.6C876.7,915.3,866.4,925,854,926.2"/>
		<path class="st1" d="M191.7,800c-1,0.1-2,0.1-3.1,0c-8.3-0.9-14.3-8.4-13.4-16.7c0.9-8.3,8.4-14.3,16.7-13.4
			c8.3,0.9,14.3,8.4,13.4,16.7C204.5,793.8,198.7,799.3,191.7,800"/>
		<path class="st1" d="M353.2,871.6c-2,0.2-3.9,0.2-6-0.1c-16.2-1.8-27.9-16.3-26.1-32.5c1.8-16.2,16.3-27.8,32.5-26.1
			c16.2,1.8,27.9,16.3,26.1,32.5C378.2,859.6,366.9,870.3,353.2,871.6z"/>
		<path class="st2" d="M776,794.1c-2.2,0.2-4.5,0.2-6.8-0.1c-18.3-2-31.5-18.5-29.5-36.7c2-18.3,18.4-31.5,36.7-29.5
			c18.3,2,31.5,18.5,29.5,36.7C804.3,780.5,791.4,792.6,776,794.1z"/>
		<path class="st1" d="M725,732.4c-0.8,0.1-1.5,0.1-2.3,0c-6.3-0.7-10.8-6.3-10.1-12.6c0.7-6.3,6.3-10.8,12.6-10.1
			c6.3,0.7,10.8,6.4,10.1,12.6C734.7,727.8,730.3,731.9,725,732.4z"/>
		<path class="st1" d="M170.4,740c0,0,3.4-553.5,0.2-551.8c-16,9-29.7,9.9-43.4,9.3C70.8,195.3,2,144.6,0.1,79.3
			c-0.7-27.2,2.6-52.9,23.6-68.3C36.7,1.4,53.1,0.7,69.5,0.7c54.4,0,125.8,54.3,127.1,118.2v600.2L170.4,740z"/>
		<path class="st1" d="M686.8,706.1c-1,0.1-2,0.1-3.1,0c-8.4-0.9-14.4-8.5-13.5-16.8c0.9-8.4,8.5-14.4,16.8-13.5
			c8.4,0.9,14.4,8.4,13.5,16.8C699.7,699.9,693.9,705.4,686.8,706.1z"/>
		<path class="st1" d="M485.3,761.1c-1.9,0.2-3.8,0.2-5.8,0c-15.7-1.7-27-15.9-25.3-31.6c1.7-15.7,15.8-27.1,31.6-25.3
			c15.7,1.7,27,15.9,25.3,31.5C509.5,749.5,498.5,759.9,485.3,761.1"/>
		<path class="st1" d="M637.7,684.2c-1.3,0.1-2.6,0.1-3.9,0c-10.5-1.1-18-10.6-16.9-21c1.2-10.5,10.6-18,21-16.9
			c10.5,1.2,18,10.6,16.9,21C653.9,676.5,646.6,683.4,637.7,684.2z"/>
		<path class="st1" d="M561.1,712.5c-9.7,0.3-19-5-23.3-14.3c-5.8-12.4-0.4-27.2,12-32.9c12.4-5.8,27.2-0.4,32.9,12.1
			c5.8,12.4,0.4,27.2-12.1,32.9C567.6,711.7,564.4,712.4,561.1,712.5"/>
		<path class="st2" d="M634.3,894.6c-1.7,0.2-3.4,0.2-5.2,0c-14.1-1.5-24.3-14.2-22.7-28.3c1.5-14.1,14.2-24.2,28.3-22.7
			c14.1,1.5,24.2,14.2,22.7,28.3C656,884.2,646.1,893.5,634.3,894.6"/>
		<path class="st2" d="M560.7,927.2c-4.8-0.3-9.5-1.9-13.6-5.1c-10.9-8.3-13-23.9-4.6-34.7c8.3-10.9,23.9-12.9,34.7-4.6
			c10.9,8.3,12.9,23.9,4.7,34.8C576.7,924.3,568.7,927.6,560.7,927.2"/>
		<path class="st2" d="M697.2,846.9c-3.9,0.3-7.9-0.2-11.9-1.5l-1.5-0.5c-16.2-6.2-24.8-24.1-19-39.9c5.5-15.3,22.2-23.2,38.1-18.1
			l1.6,0.6c16.2,6.2,24.7,24.1,19.1,39.9C719.3,838.7,708.9,846.1,697.2,846.9"/>
		<path class="st2" d="M507.5,897.3c-1.3,0.1-2.6,0.1-3.9,0c-10.4-1.2-18-10.6-16.9-21c1.2-10.5,10.6-18,21-16.9
			c10.5,1.1,18,10.5,16.9,21C523.6,889.6,516.3,896.5,507.5,897.3"/>
		<path class="st1" d="M420.3,823.7c-2.4,0.2-4.9,0.2-7.3-0.1c-19.9-2.2-34.3-20.1-32.1-40c2.2-19.9,20.1-34.3,40-32.1
			c19.9,2.2,34.3,20.1,32.1,39.9C451.1,809,437.1,822.1,420.3,823.7z"/>
		<path class="st2" d="M468.5,852.6c-0.9,0.1-1.8,0.1-2.7,0c-7.3-0.8-12.6-7.4-11.8-14.7c0.8-7.3,7.4-12.6,14.7-11.8
			c7.3,0.8,12.6,7.4,11.8,14.7C479.8,847.1,474.7,852,468.5,852.6z"/>
		<path class="st2" d="M269.2,734.6c-2,0.2-4.1,0.2-6.2-0.1c-16.7-1.8-28.9-16.9-27-33.6c1.8-16.7,16.9-28.8,33.6-27
			c16.8,1.8,28.8,16.9,27,33.6C295.1,722.2,283.4,733.3,269.2,734.6"/>
		<path class="st2" d="M872.9,703.5c-0.9,0.1-1.8,0.1-2.7,0c-7.3-0.8-12.6-7.4-11.8-14.7c0.8-7.3,7.4-12.6,14.7-11.8
			c7.3,0.8,12.7,7.4,11.8,14.7C884.2,698,879.1,702.9,872.9,703.5z"/>
		<path class="st2" d="M344.5,756.3c-1.5,0.1-3,0.1-4.5-0.1c-12.1-1.3-20.9-12.2-19.6-24.4c1.3-12.1,12.2-20.9,24.4-19.6
			c12.2,1.3,20.9,12.2,19.6,24.4C363.3,747.3,354.8,755.3,344.5,756.3z"/>
		<path class="st2" d="M830.5,743c-1.3,0.1-2.6,0.1-3.8,0c-10.5-1.2-18-10.6-16.9-21c1.1-10.5,10.6-18,21-16.9
			c10.5,1.1,18.1,10.6,16.9,21C846.7,735.2,839.4,742.2,830.5,743z"/>
	</g>
</g>
</svg>
